<svg xmlns="http://www.w3.org/2000/svg" xmlns:xlink="http://www.w3.org/1999/xlink" xml:lang="en" height="277.19999999999993pt" width="783.191pt" viewBox="-60.91599999999999 -167.99999999999997 783.191 277.19999999999993"><circle cx="3.857637417314163e-15" cy="-63.0" r="18.0" style="stroke:black;fill:none;stroke-width:2.0;stroke-dasharray:-;" /><polygon points="218.70000000000002,-135.0 231.29999999999998,-126.0 218.70000000000002,-117.0 " style="stroke:black;fill:none;stroke-width:2.0;stroke-dasharray:-;stroke-linecap:round;stroke-linejoin:round;" /><polygon points="279.0,-32.40000000000001 288.0,-45.0 297.0,-32.40000000000001 " style="stroke:black;fill:none;stroke-width:2.0;stroke-dasharray:-;stroke-linecap:round;stroke-linejoin:round;" /><polygon points="279.0,-57.6 297.0,-57.6 288.0,-45.0 " style="stroke:black;fill:none;stroke-width:2.0;stroke-dasharray:-;stroke-linecap:round;stroke-linejoin:round;" /><circle cx="315.0" cy="-37.80000000000001" r="4.199999999999999" style="stroke:black;fill:none;stroke-width:2.0;stroke-dasharray:-;" /><path d="M 0.0,-0.0 L 2.7554552980815448e-15,-45.0 L 2.7554552980815448e-15,-45.0 M 4.9598195365467806e-15,-81.0 L 4.9598195365467806e-15,-81.0 L 7.715274834628325e-15,-126.0" style="stroke:black;fill:none;stroke-width:2.0;stroke-dasharray:-;stroke-linecap:round;stroke-linejoin:round;" /><path d="M -3.5999999999999956,-72.0 L 3.6000000000000045,-72.0" style="stroke:black;fill:none;stroke-width:2.0;stroke-dasharray:-;stroke-linecap:round;stroke-linejoin:round;" /><path d="M 3.0861099338513298e-15,-50.4 L 3.5269827815443773e-15,-57.6" style="stroke:black;fill:none;stroke-width:2.0;stroke-dasharray:-;stroke-linecap:round;stroke-linejoin:round;" /><path d="M -3.5999999999999965,-54.0 L 3.6000000000000036,-54.0" style="stroke:black;fill:none;stroke-width:2.0;stroke-dasharray:-;stroke-linecap:round;stroke-linejoin:round;" /><path d="M 0.0,-0.0 L 0.0,-0.0 L -9.0,-0.0 L 9.0,-0.0 M -6.3,4.32 L 6.3,4.32 M -1.8,8.64 L 1.8,8.64" style="stroke:black;fill:none;stroke-width:2.0;stroke-dasharray:-;stroke-linecap:round;stroke-linejoin:round;" /><path d="M 7.715274834628325e-15,-126.0 L 18.000000000000007,-126.0 L 36.00000000000001,-126.0" style="stroke:black;fill:none;stroke-width:2.0;stroke-dasharray:-;stroke-linecap:round;stroke-linejoin:round;" /><path d="M 36.00000000000001,-126.0 L 83.16000000000003,-126.0 L 83.80653061224491,-127.15089445516055 L 84.4530612244898,-128.28289125518555 L 85.0995918367347,-129.37740304391437 L 85.7461224489796,-130.41645796803544 L 86.3926530612245,-131.38299477442095 L 87.03918367346938,-132.26114295543138 L 87.6857142857143,-133.03648334221228 L 88.3322448979592,-133.69628486704812 L 88.9787755102041,-134.22971360714232 L 89.62530612244898,-134.62801067732994 L 90.27183673469389,-134.88463605073005 L 90.9183673469388,-134.9953759458062 L 91.5648979591837,-134.95841201654278 L 92.21142857142858,-134.77435120963642 L 92.85795918367347,-134.44621579844784 L 93.50448979591837,-133.979393757357 L 94.15102040816329,-133.3815502913726 L 94.79755102040818,-132.66250197367785 L 95.44408163265307,-131.8340555577701 L 96.09061224489797,-130.90981411089496 L 96.73714285714289,-129.90495365205803 L 97.38367346938777,-128.8359739622126 L 98.03020408163266,-127.72042765831236 L 98.67673469387756,-126.57663197982643 L 99.32326530612247,-125.4233680201736 L 99.96979591836735,-124.27957234168765 L 100.61632653061224,-123.16402603778741 L 101.26285714285716,-122.09504634794197 L 101.90938775510206,-121.09018588910507 L 102.55591836734696,-120.16594444222991 L 103.20244897959184,-119.33749802632217 L 103.84897959183675,-118.6184497086274 L 104.49551020408165,-118.020606242643 L 105.14204081632656,-117.55378420155215 L 105.78857142857143,-117.22564879036358 L 106.43510204081633,-117.04158798345722 L 107.08163265306123,-117.0046240541938 L 107.72816326530615,-117.11536394926995 L 108.37469387755102,-117.37198932267006 L 109.02122448979593,-117.77028639285768 L 109.66775510204083,-118.30371513295188 L 110.31428571428575,-118.96351665778772 L 110.96081632653062,-119.73885704456862 L 111.60734693877552,-120.61700522557906 L 112.25387755102042,-121.58354203196454 L 112.90040816326533,-122.62259695608563 L 113.5469387755102,-123.71710874481442 L 114.1934693877551,-124.84910554483943 L 114.84000000000002,-126.0 L 162.0,-126.0" style="stroke:black;fill:none;stroke-width:2.0;stroke-dasharray:-;stroke-linecap:round;stroke-linejoin:round;" /><path d="M 74.52000000000001,-126.0 M 123.47999999999999,-126.0" style="stroke:black;fill:none;stroke-width:2.0;stroke-dasharray:-;stroke-linecap:round;stroke-linejoin:round;" /><path d="M 162.0,-126.0 L 218.70000000000002,-126.0 M 231.29999999999998,-135.0 L 231.29999999999998,-117.0 M 231.29999999999998,-126.0 L 288.0,-126.0" style="stroke:black;fill:none;stroke-width:2.0;stroke-dasharray:-;stroke-linecap:round;stroke-linejoin:round;" /><path d="M 288.0,-126.0 L 288.0,-117.0 L 288.0,-108.0" style="stroke:black;fill:none;stroke-width:2.0;stroke-dasharray:-;stroke-linecap:round;stroke-linejoin:round;" /><path d="M 288.0,-108.0 L 288.0,-57.6 M 288.0,-32.40000000000001 L 287.99999999999994,17.999999999999986" style="stroke:black;fill:none;stroke-width:2.0;stroke-dasharray:-;stroke-linecap:round;stroke-linejoin:round;" /><path d="M 279.0,-41.400000000000006 L 279.0,-45.0 L 297.0,-45.0 L 297.0,-48.6" style="stroke:black;fill:none;stroke-width:2.0;stroke-dasharray:-;stroke-linecap:round;stroke-linejoin:round;" /><path d="M 287.99999999999994,17.999999999999986 L 287.99999999999994,17.999999999999986 L 278.99999999999994,17.999999999999986 L 297.0,17.999999999999986 M 281.7,22.319999999999983 L 294.29999999999995,22.319999999999983 M 286.2,26.639999999999983 L 289.79999999999995,26.639999999999983" style="stroke:black;fill:none;stroke-width:2.0;stroke-dasharray:-;stroke-linecap:round;stroke-linejoin:round;" /><path d="M 288.0,-126.0 L 315.0,-126.0 L 342.0,-126.0" style="stroke:black;fill:none;stroke-width:2.0;stroke-dasharray:-;stroke-linecap:round;stroke-linejoin:round;" /><path d="M 342.0,-126.0 L 342.0,-66.24000000000001 M 351.0,-66.24000000000001 L 333.0,-66.24000000000001 M 351.0,-59.760000000000005 L 333.0,-59.760000000000005 M 342.0,-59.760000000000005 L 342.0,-0.0" style="stroke:black;fill:none;stroke-width:2.0;stroke-dasharray:-;stroke-linecap:round;stroke-linejoin:round;" /><path d="M 342.0,-0.0 L 342.0,-0.0 L 333.0,-0.0 L 351.0,-0.0 M 335.7,4.32 L 348.3,4.32 M 340.2,8.64 L 343.8,8.64" style="stroke:black;fill:none;stroke-width:2.0;stroke-dasharray:-;stroke-linecap:round;stroke-linejoin:round;" /><path d="M 342.0,-126.0 L 351.0,-126.0 L 360.0,-126.0" style="stroke:black;fill:none;stroke-width:2.0;stroke-dasharray:-;stroke-linecap:round;stroke-linejoin:round;" /><path d="M 360.0,-126.0 L 405.0,-126.0 L 405.0,-135.0 L 441.0,-135.0 L 441.0,-117.0 L 405.0,-117.0 L 405.0,-126.0 M 441.0,-126.0 L 486.0,-126.0" style="stroke:black;fill:none;stroke-width:2.0;stroke-dasharray:-;stroke-linecap:round;stroke-linejoin:round;" /><path d="M 486.0,-126.0 L 495.0,-126.0 L 504.0,-126.0" style="stroke:black;fill:none;stroke-width:2.0;stroke-dasharray:-;stroke-linecap:round;stroke-linejoin:round;" /><path d="M 504.0,-126.0 L 504.0,-66.24000000000001 M 513.0,-66.24000000000001 L 495.0,-66.24000000000001 M 513.0,-59.760000000000005 L 495.0,-59.760000000000005 M 504.0,-59.760000000000005 L 504.0,-0.0" style="stroke:black;fill:none;stroke-width:2.0;stroke-dasharray:-;stroke-linecap:round;stroke-linejoin:round;" /><path d="M 504.0,-0.0 L 504.0,-0.0 L 495.0,-0.0 L 513.0,-0.0 M 497.7,4.32 L 510.3,4.32 M 502.2,8.64 L 505.8,8.64" style="stroke:black;fill:none;stroke-width:2.0;stroke-dasharray:-;stroke-linecap:round;stroke-linejoin:round;" /><path d="M 504.0,-126.0 L 531.0,-126.0 L 558.0,-126.0" style="stroke:black;fill:none;stroke-width:2.0;stroke-dasharray:-;stroke-linecap:round;stroke-linejoin:round;" /><path d="M 558.0,-126.0 L 603.0,-126.0 L 603.0,-135.0 L 639.0,-135.0 L 639.0,-117.0 L 603.0,-117.0 L 603.0,-126.0 M 639.0,-126.0 L 684.0,-126.0" style="stroke:black;fill:none;stroke-width:2.0;stroke-dasharray:-;stroke-linecap:round;stroke-linejoin:round;" /><path d="M 684.0,-126.0 L 693.0,-126.0 L 702.0,-126.0" style="stroke:black;fill:none;stroke-width:2.0;stroke-dasharray:-;stroke-linecap:round;stroke-linejoin:round;" /><path d="M 702.0,-126.0 L 702.0,-66.24000000000001 M 711.0,-66.24000000000001 L 693.0,-66.24000000000001 M 711.0,-59.760000000000005 L 693.0,-59.760000000000005 M 702.0,-59.760000000000005 L 702.0,-0.0" style="stroke:black;fill:none;stroke-width:2.0;stroke-dasharray:-;stroke-linecap:round;stroke-linejoin:round;" /><path d="M 702.0,-0.0 L 702.0,-0.0 L 693.0,-0.0 L 711.0,-0.0 M 695.6999999999999,4.32 L 708.3000000000001,4.32 M 700.1999999999999,8.64 L 703.8000000000001,8.64" style="stroke:black;fill:none;stroke-width:2.0;stroke-dasharray:-;stroke-linecap:round;stroke-linejoin:round;" /><path d="M 342.0,-126.0 L 342.0,-99.0 L 342.0,-72.0" style="stroke:black;fill:none;stroke-width:2.0;stroke-dasharray:-;stroke-linecap:round;stroke-linejoin:round;" /><path d="M 342.0,-72.0 L 327.0,-72.0 L 327.0,-48.00000000000001 L 303.0,-48.00000000000001 L 303.0,-72.0 L 288.0,-72.00000000000001" style="stroke:black;fill:none;stroke-width:2.0;stroke-dasharray:-;stroke-linecap:round;stroke-linejoin:round;" /><path d="M 327.0,-42.000000000000014 L 303.0,-42.000000000000014" style="stroke:black;fill:none;stroke-width:2.0;stroke-dasharray:-;stroke-linecap:round;stroke-linejoin:round;" /><path d="M 315.0,-33.60000000000001 L 315.0,-22.800000000000008" style="stroke:black;fill:none;stroke-width:2.0;stroke-dasharray:-;stroke-linecap:round;stroke-linejoin:round;" /><path d="M 315.0,-22.800000000000008 L 333.0,-22.800000000000008 L 351.0,-22.800000000000008" style="stroke:black;fill:none;stroke-width:2.0;stroke-dasharray:-;stroke-linecap:round;stroke-linejoin:round;" /><path d="M 351.0,-22.800000000000008 L 396.0,-22.800000000000008 L 399.0,-31.800000000000008 L 405.0,-13.800000000000008 L 411.0,-31.800000000000008 L 417.0,-13.800000000000008 L 423.0,-31.800000000000008 L 429.0,-13.800000000000008 L 432.0,-22.800000000000008 L 477.0,-22.800000000000008" style="stroke:black;fill:none;stroke-width:2.0;stroke-dasharray:-;stroke-linecap:round;stroke-linejoin:round;" /><path d="M 477.0,-22.800000000000008 L 477.0,-67.80000000000001 L 468.0,-70.80000000000001 L 486.0,-76.80000000000001 L 468.0,-82.8 L 486.0,-88.80000000000001 L 468.0,-94.80000000000001 L 486.0,-100.8 L 477.0,-103.80000000000001 L 477.0,-148.8" style="stroke:black;fill:none;stroke-width:2.0;stroke-dasharray:-;stroke-linecap:round;stroke-linejoin:round;" /><path d="M 449.94,2.2799999999999927 L 463.14,2.2799999999999927" style="stroke:black;fill:none;stroke-width:2.0;stroke-dasharray:-;stroke-linecap:round;stroke-linejoin:round;" /><path d="M 463.14,-10.920000000000007 L 463.14,15.47999999999999" style="stroke:black;fill:none;stroke-width:2.0;stroke-dasharray:-;stroke-linecap:round;stroke-linejoin:round;" /><path d="M 463.14,-4.320000000000007 L 477.0,-16.200000000000006 L 477.0,-22.800000000000008" style="stroke:black;fill:none;stroke-width:2.0;stroke-dasharray:-;stroke-linecap:round;stroke-linejoin:round;" /><path d="M 463.14,8.879999999999994 L 477.0,20.75999999999999 L 477.0,27.359999999999992" style="stroke:black;fill:none;stroke-width:2.0;stroke-dasharray:-;stroke-linecap:round;stroke-linejoin:round;" /><path d="M 463.14,8.879999999999994 L 470.1666905787123,14.902877638896273" style="stroke:black;fill:none;stroke-width:2.0;stroke-dasharray:-;stroke-linecap:round;stroke-linejoin:round;" /><path d="M 475.4814867952694 19.458417253088054 L 467.8238416342708 17.63620140741134 L 472.5095395231538 12.169553870381204 Z" style="stroke:black;fill:black;stroke-linecap:butt;stroke-linejoin:miter;" /><path d="M 477.0,27.359999999999992 L 477.0,27.359999999999992 L 468.0,27.359999999999992 L 486.0,27.359999999999992 M 470.7,31.679999999999993 L 483.3,31.679999999999993 M 475.2,35.99999999999999 L 478.8,35.99999999999999" style="stroke:black;fill:none;stroke-width:2.0;stroke-dasharray:-;stroke-linecap:round;stroke-linejoin:round;" /><path d="M 449.94,2.2799999999999927 L 458.94,2.2799999999999927 L 467.94,2.2799999999999927" style="stroke:black;fill:none;stroke-width:2.0;stroke-dasharray:-;stroke-linecap:round;stroke-linejoin:round;" /><path d="M 467.94,2.2799999999999927 L 512.9399999999999,2.2799999999999927 L 515.94,-6.720000000000008 L 521.9399999999999,11.279999999999992 L 527.9399999999999,-6.720000000000008 L 533.94,11.279999999999992 L 539.9399999999999,-6.720000000000008 L 545.9399999999999,11.279999999999992 L 548.9399999999999,2.2799999999999927 L 593.94,2.2799999999999927" style="stroke:black;fill:none;stroke-width:2.0;stroke-dasharray:-;stroke-linecap:round;stroke-linejoin:round;" /><path d="M 288.0,-72.00000000000001 L 288.0,-54.000000000000014 L 288.0,-36.000000000000014" style="stroke:black;fill:none;stroke-width:2.0;stroke-dasharray:-;stroke-linecap:round;stroke-linejoin:round;" /><path d="M 288.0,-36.000000000000014 L 288.0,23.75999999999998 M 297.0,23.75999999999998 L 279.0,23.75999999999998 M 297.0,30.23999999999998 L 279.0,30.23999999999998 M 288.0,30.23999999999998 L 287.99999999999994,89.99999999999999" style="stroke:black;fill:none;stroke-width:2.0;stroke-dasharray:-;stroke-linecap:round;stroke-linejoin:round;" /><path d="M 287.99999999999994,89.99999999999999 L 287.99999999999994,89.99999999999999 L 278.99999999999994,89.99999999999999 L 297.0,89.99999999999999 M 281.7,94.32 L 294.29999999999995,94.32 M 286.2,98.63999999999997 L 289.79999999999995,98.63999999999997" style="stroke:black;fill:none;stroke-width:2.0;stroke-dasharray:-;stroke-linecap:round;stroke-linejoin:round;" /><text x="-21.599999999999994" y="-74.0" dominant-baseline="central" fill="black" font-size="11" font-family="sans" text-anchor="end"><tspan x="-21.599999999999994" dy="11">V_BAT</tspan></text><text x="21.6" y="-74.0" dominant-baseline="central" fill="black" font-size="11" font-family="sans" text-anchor="start"><tspan x="21.6" dy="11">12V</tspan></text><text x="99.0" y="-149.5953759458062" dominant-baseline="ideographic" fill="black" font-size="11" font-family="sans" text-anchor="middle"><tspan x="99.0" dy="11">F1</tspan></text><text x="99.0" y="-124.4046240541938" dominant-baseline="hanging" fill="black" font-size="11" font-family="sans" text-anchor="middle"><tspan x="99.0" dy="11">2A</tspan></text><text x="225.0" y="-149.6" dominant-baseline="ideographic" fill="black" font-size="11" font-family="sans" text-anchor="middle"><tspan x="225.0" dy="11">D1</tspan></text><text x="225.0" y="-124.39999999999999" dominant-baseline="hanging" fill="black" font-size="11" font-family="sans" text-anchor="middle"><tspan x="225.0" dy="11">1N4007</tspan></text><text x="287.99999999999994" y="10.599999999999987" dominant-baseline="hanging" fill="black" font-size="11" font-family="sans" text-anchor="middle"><tspan x="287.99999999999994" dy="11">D2</tspan></text><text x="288.0" y="-122.60000000000001" dominant-baseline="ideographic" fill="black" font-size="11" font-family="sans" text-anchor="middle"><tspan x="288.0" dy="11">1.5KE18A</tspan></text><text x="345.59999999999997" y="-140.6" dominant-baseline="ideographic" fill="black" font-size="11" font-family="sans" text-anchor="middle"><tspan x="345.59999999999997" dy="11">V_PROT</tspan></text><text x="348.48" y="-88.016" dominant-baseline="central" fill="black" font-size="14" font-family="sans" text-anchor="middle"><tspan x="348.48" dy="14">+</tspan></text><text x="342.0" y="-7.400000000000013" dominant-baseline="hanging" fill="black" font-size="11" font-family="sans" text-anchor="middle"><tspan x="342.0" dy="11">C1</tspan></text><text x="342.0" y="-140.6" dominant-baseline="ideographic" fill="black" font-size="11" font-family="sans" text-anchor="middle"><tspan x="342.0" dy="11">100µF</tspan></text><text x="426.59999999999997" y="-146.1" dominant-baseline="central" fill="black" font-size="11" font-family="sans" text-anchor="middle"><tspan x="426.59999999999997" dy="11">OKI-78SR</tspan><tspan x="426.59999999999997" dy="11">12V→5V</tspan></text><text x="356.40000000000003" y="-137.0" dominant-baseline="central" fill="black" font-size="11" font-family="sans" text-anchor="end"><tspan x="356.40000000000003" dy="11">IN</tspan></text><text x="489.59999999999997" y="-137.0" dominant-baseline="central" fill="black" font-size="11" font-family="sans" text-anchor="start"><tspan x="489.59999999999997" dy="11">OUT</tspan></text><text x="507.59999999999997" y="-140.6" dominant-baseline="ideographic" fill="black" font-size="11" font-family="sans" text-anchor="middle"><tspan x="507.59999999999997" dy="11">5V</tspan></text><text x="504.0" y="-7.400000000000013" dominant-baseline="hanging" fill="black" font-size="11" font-family="sans" text-anchor="middle"><tspan x="504.0" dy="11">C2</tspan></text><text x="504.0" y="-140.6" dominant-baseline="ideographic" fill="black" font-size="11" font-family="sans" text-anchor="middle"><tspan x="504.0" dy="11">100nF</tspan></text><text x="624.6" y="-146.1" dominant-baseline="central" fill="black" font-size="11" font-family="sans" text-anchor="middle"><tspan x="624.6" dy="11">LD1117V33</tspan><tspan x="624.6" dy="11">5V→3.3V</tspan></text><text x="554.4" y="-137.0" dominant-baseline="central" fill="black" font-size="11" font-family="sans" text-anchor="end"><tspan x="554.4" dy="11">IN</tspan></text><text x="687.6" y="-137.0" dominant-baseline="central" fill="black" font-size="11" font-family="sans" text-anchor="start"><tspan x="687.6" dy="11">OUT</tspan></text><text x="705.6" y="-140.6" dominant-baseline="ideographic" fill="black" font-size="11" font-family="sans" text-anchor="middle"><tspan x="705.6" dy="11">3.3V</tspan></text><text x="702.0" y="-7.400000000000013" dominant-baseline="hanging" fill="black" font-size="11" font-family="sans" text-anchor="middle"><tspan x="702.0" dy="11">C3</tspan></text><text x="702.0" y="-140.6" dominant-baseline="ideographic" fill="black" font-size="11" font-family="sans" text-anchor="middle"><tspan x="702.0" dy="11">100nF</tspan></text><text x="315.0" y="-30.200000000000003" dominant-baseline="hanging" fill="black" font-size="11" font-family="sans" text-anchor="middle"><tspan x="315.0" dy="11">Q_EN</tspan></text><text x="315.0" y="-97.60000000000001" dominant-baseline="ideographic" fill="black" font-size="11" font-family="sans" text-anchor="middle"><tspan x="315.0" dy="11">Si2301</tspan><tspan x="315.0" dy="11">P-FET</tspan></text><text x="414.0" y="-46.400000000000006" dominant-baseline="ideographic" fill="black" font-size="11" font-family="sans" text-anchor="middle"><tspan x="414.0" dy="11">R_G</tspan></text><text x="414.0" y="-21.20000000000001" dominant-baseline="hanging" fill="black" font-size="11" font-family="sans" text-anchor="middle"><tspan x="414.0" dy="11">10kΩ</tspan></text><text x="477.0" y="-30.200000000000003" dominant-baseline="hanging" fill="black" font-size="11" font-family="sans" text-anchor="middle"><tspan x="477.0" dy="11">R_GP</tspan></text><text x="477.0" y="-163.4" dominant-baseline="ideographic" fill="black" font-size="11" font-family="sans" text-anchor="middle"><tspan x="477.0" dy="11">100kΩ</tspan></text><text x="473.40000000000003" y="-163.4" dominant-baseline="central" fill="black" font-size="11" font-family="sans" text-anchor="middle"><tspan x="473.40000000000003" dy="11">V_PROT</tspan></text><text x="446.34000000000003" y="-8.420000000000005" dominant-baseline="central" fill="black" font-size="11" font-family="sans" text-anchor="end"><tspan x="446.34000000000003" dy="11">Q_LVL</tspan></text><text x="480.59999999999997" y="-8.420000000000005" dominant-baseline="central" fill="black" font-size="11" font-family="sans" text-anchor="start"><tspan x="480.59999999999997" dy="11">2N7002</tspan></text><text x="530.9399999999999" y="-21.320000000000007" dominant-baseline="ideographic" fill="black" font-size="11" font-family="sans" text-anchor="middle"><tspan x="530.9399999999999" dy="11">R_EN</tspan></text><text x="530.9399999999999" y="3.879999999999992" dominant-baseline="hanging" fill="black" font-size="11" font-family="sans" text-anchor="middle"><tspan x="530.9399999999999" dy="11">10kΩ</tspan></text><text x="597.5400000000001" y="-17.820000000000007" dominant-baseline="central" fill="black" font-size="11" font-family="sans" text-anchor="start"><tspan x="597.5400000000001" dy="11">MCU</tspan><tspan x="597.5400000000001" dy="11">DIAG_EN</tspan></text><text x="291.59999999999997" y="-43.40000000000002" dominant-baseline="ideographic" fill="black" font-size="11" font-family="sans" text-anchor="middle"><tspan x="291.59999999999997" dy="11">V_DIAG (12V switched)</tspan></text><text x="287.99999999999994" y="82.59999999999997" dominant-baseline="hanging" fill="black" font-size="11" font-family="sans" text-anchor="middle"><tspan x="287.99999999999994" dy="11">C4</tspan></text><text x="288.0" y="-50.60000000000002" dominant-baseline="ideographic" fill="black" font-size="11" font-family="sans" text-anchor="middle"><tspan x="288.0" dy="11">100µF</tspan></text><circle cx="78.84000000000002" cy="-126.0" r="4.32" style="stroke:black;fill:white;stroke-width:2.0;stroke-dasharray:-;" /><circle cx="119.16000000000003" cy="-126.0" r="4.32" style="stroke:black;fill:white;stroke-width:2.0;stroke-dasharray:-;" /><circle cx="288.0" cy="-126.0" r="2.6999999999999997" style="stroke:black;fill:black;stroke-width:2.0;stroke-dasharray:-;" /><circle cx="342.0" cy="-126.0" r="2.6999999999999997" style="stroke:black;fill:black;stroke-width:2.0;stroke-dasharray:-;" /><circle cx="504.0" cy="-126.0" r="2.6999999999999997" style="stroke:black;fill:black;stroke-width:2.0;stroke-dasharray:-;" /><circle cx="702.0" cy="-126.0" r="2.6999999999999997" style="stroke:black;fill:black;stroke-width:2.0;stroke-dasharray:-;" /><circle cx="288.0" cy="-36.000000000000014" r="2.6999999999999997" style="stroke:black;fill:black;stroke-width:2.0;stroke-dasharray:-;" /></svg>