<svg xmlns="http://www.w3.org/2000/svg" xmlns:xlink="http://www.w3.org/1999/xlink" xml:lang="en" height="390.88000000000005pt" width="658.736pt" viewBox="-88.41999999999999 -332.28000000000003 658.736 390.88000000000005"><circle cx="3.857637417314163e-15" cy="-63.0" r="18.0" style="stroke:black;fill:none;stroke-width:2.0;stroke-dasharray:-;" /><circle cx="80.94" cy="-88.07999999999998" r="18.0" style="stroke:black;fill:none;stroke-width:2.0;stroke-dasharray:-;" /><polygon points="308.7,-135.0 321.3,-126.0 308.7,-117.0 " style="stroke:black;fill:none;stroke-width:2.0;stroke-dasharray:-;stroke-linecap:round;stroke-linejoin:round;" /><circle cx="487.8" cy="-126.0" r="19.8" style="stroke:black;fill:none;stroke-width:2.0;stroke-dasharray:-;" /><path d="M 0.0,-0.0 L 2.7554552980815448e-15,-45.0 L 2.7554552980815448e-15,-45.0 M 4.9598195365467806e-15,-81.0 L 4.9598195365467806e-15,-81.0 L 7.715274834628325e-15,-126.0" style="stroke:black;fill:none;stroke-width:2.0;stroke-dasharray:-;stroke-linecap:round;stroke-linejoin:round;" /><path d="M -3.5999999999999956,-72.0 L 3.6000000000000045,-72.0" style="stroke:black;fill:none;stroke-width:2.0;stroke-dasharray:-;stroke-linecap:round;stroke-linejoin:round;" /><path d="M 3.0861099338513298e-15,-50.4 L 3.5269827815443773e-15,-57.6" style="stroke:black;fill:none;stroke-width:2.0;stroke-dasharray:-;stroke-linecap:round;stroke-linejoin:round;" /><path d="M -3.5999999999999965,-54.0 L 3.6000000000000036,-54.0" style="stroke:black;fill:none;stroke-width:2.0;stroke-dasharray:-;stroke-linecap:round;stroke-linejoin:round;" /><path d="M 0.0,-0.0 L 0.0,-0.0 L -9.0,-0.0 L 9.0,-0.0 M -6.3,4.32 L 6.3,4.32 M -1.8,8.64 L 1.8,8.64" style="stroke:black;fill:none;stroke-width:2.0;stroke-dasharray:-;stroke-linecap:round;stroke-linejoin:round;" /><path d="M 7.715274834628325e-15,-126.0 L 45.00000000000001,-126.0 L 48.00000000000001,-135.0 L 54.00000000000001,-117.0 L 60.0,-135.0 L 66.0,-117.0 L 72.0,-135.0 L 78.0,-117.0 L 81.0,-126.0 L 126.0,-126.0" style="stroke:black;fill:none;stroke-width:2.0;stroke-dasharray:-;stroke-linecap:round;stroke-linejoin:round;" /><path d="M 98.94000000000001,-151.07999999999998 L 112.14000000000001,-151.07999999999998" style="stroke:black;fill:none;stroke-width:2.0;stroke-dasharray:-;stroke-linecap:round;stroke-linejoin:round;" /><path d="M 112.14000000000001,-137.88 L 112.14000000000001,-164.28" style="stroke:black;fill:none;stroke-width:2.0;stroke-dasharray:-;stroke-linecap:round;stroke-linejoin:round;" /><path d="M 112.14000000000001,-144.48000000000002 L 126.0,-132.60000000000002 L 126.0,-126.0" style="stroke:black;fill:none;stroke-width:2.0;stroke-dasharray:-;stroke-linecap:round;stroke-linejoin:round;" /><path d="M 112.14000000000001,-157.68 L 126.0,-169.56 L 126.0,-176.16" style="stroke:black;fill:none;stroke-width:2.0;stroke-dasharray:-;stroke-linecap:round;stroke-linejoin:round;" /><path d="M 112.14000000000001,-157.68 L 119.16669057871233,-163.70287763889627" style="stroke:black;fill:none;stroke-width:2.0;stroke-dasharray:-;stroke-linecap:round;stroke-linejoin:round;" /><path d="M 124.4814867952694 -168.25841725308806 L 121.50953952315382 -160.96955387038122 L 116.82384163427083 -166.43620140741135 Z" style="stroke:black;fill:black;stroke-linecap:butt;stroke-linejoin:miter;" /><path d="M 126.0,-176.16 L 126.0,-176.16 L 117.0,-176.16 L 135.0,-176.16 M 119.7,-171.84 L 132.29999999999998,-171.84 M 124.2,-167.52 L 127.8,-167.52" style="stroke:black;fill:none;stroke-width:2.0;stroke-dasharray:-;stroke-linecap:round;stroke-linejoin:round;" /><path d="M 98.94000000000001,-151.07999999999998 L 89.94000000000001,-151.07999999999998 L 80.94000000000001,-151.07999999999998" style="stroke:black;fill:none;stroke-width:2.0;stroke-dasharray:-;stroke-linecap:round;stroke-linejoin:round;" /><path d="M 80.94000000000001,-151.07999999999998 L 80.94,-106.07999999999998 L 80.94,-106.07999999999998 M 80.94,-70.07999999999998 L 80.94,-70.07999999999998 L 80.94,-25.079999999999988" style="stroke:black;fill:none;stroke-width:2.0;stroke-dasharray:-;stroke-linecap:round;stroke-linejoin:round;" /><path d="M 70.14,-91.67999999999999 L 75.53999999999999,-91.67999999999999 L 75.53999999999999,-86.28 L 86.33999999999999,-86.28 L 86.34,-91.67999999999999 L 91.74,-91.67999999999999" style="stroke:black;fill:none;stroke-width:2.0;stroke-dasharray:-;stroke-linecap:round;stroke-linejoin:round;" /><path d="M 80.94,-25.079999999999988 L 80.94,-25.079999999999988 L 71.94,-25.079999999999988 L 89.94,-25.079999999999988 M 74.64,-20.759999999999987 L 87.23999999999998,-20.759999999999987 M 79.14,-16.439999999999987 L 82.73999999999998,-16.439999999999987" style="stroke:black;fill:none;stroke-width:2.0;stroke-dasharray:-;stroke-linecap:round;stroke-linejoin:round;" /><path d="M 126.0,-126.0 L 171.0,-126.0 L 174.0,-135.0 L 180.0,-117.0 L 185.99999999999997,-135.0 L 192.0,-117.0 L 198.0,-135.0 L 203.99999999999997,-117.0 L 207.0,-126.0 L 252.0,-126.0" style="stroke:black;fill:none;stroke-width:2.0;stroke-dasharray:-;stroke-linecap:round;stroke-linejoin:round;" /><path d="M 252.0,-126.0 L 308.7,-126.0 M 321.3,-135.0 L 321.3,-117.0 M 321.3,-126.0 L 378.0,-126.0" style="stroke:black;fill:none;stroke-width:2.0;stroke-dasharray:-;stroke-linecap:round;stroke-linejoin:round;" /><path d="M 317.7,-139.5 L 323.12779964383077,-148.9986493767039" style="stroke:black;fill:none;stroke-width:2.0;stroke-dasharray:-;stroke-linecap:round;stroke-linejoin:round;" /><path d="M 325.7077221232863 -153.5135137157511 L 325.62833989314925 -147.56976923423622 L 320.62725939451235 -150.42752951917157 Z" style="stroke:black;fill:black;stroke-linecap:butt;stroke-linejoin:miter;" /><path d="M 309.59999999999997,-139.5 L 315.02779964383075,-148.9986493767039" style="stroke:black;fill:none;stroke-width:2.0;stroke-dasharray:-;stroke-linecap:round;stroke-linejoin:round;" /><path d="M 317.6077221232863 -153.5135137157511 L 317.5283398931492 -147.56976923423622 L 312.5272593945123 -150.42752951917157 Z" style="stroke:black;fill:black;stroke-linecap:butt;stroke-linejoin:miter;" /><path d="M 378.0,-126.0 L 378.0,-117.0 L 378.0,-108.0" style="stroke:black;fill:none;stroke-width:2.0;stroke-dasharray:-;stroke-linecap:round;stroke-linejoin:round;" /><path d="M 378.0,-108.0 L 378.0,-108.0 L 369.0,-108.0 L 387.0,-108.0 M 371.7,-103.67999999999999 L 384.3,-103.67999999999999 M 376.2,-99.35999999999999 L 379.8,-99.35999999999999" style="stroke:black;fill:none;stroke-width:2.0;stroke-dasharray:-;stroke-linecap:round;stroke-linejoin:round;" /><path d="M 421.2,-180.0 L 421.2,-63.0 L 421.2,54.0" style="stroke:#9b59b6;fill:none;stroke-width:2.5;stroke-dasharray:7.4,3.2;stroke-linecap:round;stroke-linejoin:round;" /><path d="M 378.0,-126.0 L 423.0,-126.0 L 468.0,-126.0" style="stroke:black;fill:none;stroke-width:2.0;stroke-dasharray:-;stroke-linecap:round;stroke-linejoin:round;" /><path d="M 468.0,-126.0 L 481.20000000000005,-126.0" style="stroke:black;fill:none;stroke-width:2.0;stroke-dasharray:-;stroke-linecap:round;stroke-linejoin:round;" /><path d="M 481.20000000000005,-139.2 L 481.20000000000005,-112.8" style="stroke:black;fill:none;stroke-width:2.0;stroke-dasharray:-;stroke-linecap:round;stroke-linejoin:round;" /><path d="M 481.20000000000005,-132.6 L 495.06,-144.48000000000002 L 495.06,-151.07999999999998" style="stroke:black;fill:none;stroke-width:2.0;stroke-dasharray:-;stroke-linecap:round;stroke-linejoin:round;" /><path d="M 481.20000000000005,-119.4 L 495.06,-107.52000000000001 L 495.06,-100.92" style="stroke:black;fill:none;stroke-width:2.0;stroke-dasharray:-;stroke-linecap:round;stroke-linejoin:round;" /><path d="M 481.20000000000005,-119.4 L 488.22669057871235,-113.37712236110372" style="stroke:black;fill:none;stroke-width:2.0;stroke-dasharray:-;stroke-linecap:round;stroke-linejoin:round;" /><path d="M 493.5414867952694 -108.82158274691194 L 485.8838416342708 -110.64379859258865 L 490.5695395231538 -116.1104461296188 Z" style="stroke:black;fill:black;stroke-linecap:butt;stroke-linejoin:miter;" /><path d="M 495.06,-100.92 L 495.06,-91.92 L 495.06,-82.92" style="stroke:black;fill:none;stroke-width:2.0;stroke-dasharray:-;stroke-linecap:round;stroke-linejoin:round;" /><path d="M 495.06,-82.92 L 495.06,-82.92 L 486.06,-82.92 L 504.06,-82.92 M 488.76,-78.6 L 501.36,-78.6 M 493.26,-74.28 L 496.86,-74.28" style="stroke:black;fill:none;stroke-width:2.0;stroke-dasharray:-;stroke-linecap:round;stroke-linejoin:round;" /><path d="M 495.06,-151.07999999999998 L 495.06,-169.07999999999998 L 495.06,-187.07999999999998" style="stroke:black;fill:none;stroke-width:2.0;stroke-dasharray:-;stroke-linecap:round;stroke-linejoin:round;" /><path d="M 495.06,-187.07999999999998 L 495.06,-232.07999999999998 L 486.06,-235.07999999999998 L 504.06,-241.07999999999998 L 486.06,-247.07999999999998 L 504.06,-253.07999999999998 L 486.06,-259.08 L 504.06,-265.08 L 495.06,-268.08 L 495.06,-313.0799999999999" style="stroke:black;fill:none;stroke-width:2.0;stroke-dasharray:-;stroke-linecap:round;stroke-linejoin:round;" /><text x="-21.599999999999994" y="-74.0" dominant-baseline="central" fill="black" font-size="11" font-family="sans" text-anchor="end"><tspan x="-21.599999999999994" dy="11">V_BAT</tspan></text><text x="21.6" y="-74.0" dominant-baseline="central" fill="black" font-size="11" font-family="sans" text-anchor="start"><tspan x="21.6" dy="11">12V</tspan></text><text x="63.00000000000001" y="-149.6" dominant-baseline="ideographic" fill="black" font-size="11" font-family="sans" text-anchor="middle"><tspan x="63.00000000000001" dy="11">R_PULL</tspan></text><text x="63.00000000000001" y="-124.39999999999999" dominant-baseline="hanging" fill="black" font-size="11" font-family="sans" text-anchor="middle"><tspan x="63.00000000000001" dy="11">680Ω</tspan></text><text x="129.6" y="-140.6" dominant-baseline="ideographic" fill="black" font-size="11" font-family="sans" text-anchor="middle"><tspan x="129.6" dy="11">DIAG PIN</tspan></text><text x="3.600000000000004" y="-211.6" dominant-baseline="central" fill="black" font-size="10" font-family="sans" text-anchor="middle"><tspan x="3.600000000000004" dy="10">── CAR DIAGNOSTIC PORT MODEL ──</tspan></text><text x="80.94" y="-32.47999999999998" dominant-baseline="hanging" fill="black" font-size="11" font-family="sans" text-anchor="middle"><tspan x="80.94" dy="11">BLINK</tspan></text><text x="80.94000000000001" y="-165.68" dominant-baseline="ideographic" fill="black" font-size="11" font-family="sans" text-anchor="middle"><tspan x="80.94000000000001" dy="11">CTRL</tspan></text><text x="189.0" y="-149.6" dominant-baseline="ideographic" fill="black" font-size="11" font-family="sans" text-anchor="middle"><tspan x="189.0" dy="11">R_RX</tspan></text><text x="189.0" y="-124.39999999999999" dominant-baseline="hanging" fill="black" font-size="11" font-family="sans" text-anchor="middle"><tspan x="189.0" dy="11">1kΩ</tspan></text><text x="315.0" y="-175.60999999999999" dominant-baseline="ideographic" fill="black" font-size="11" font-family="sans" text-anchor="middle"><tspan x="315.0" dy="11">TLP521</tspan></text><text x="315.0" y="-124.39999999999999" dominant-baseline="hanging" fill="black" font-size="11" font-family="sans" text-anchor="middle"><tspan x="315.0" dy="11">LED</tspan></text><text x="192.6" y="-211.6" dominant-baseline="central" fill="black" font-size="10" font-family="sans" text-anchor="middle"><tspan x="192.6" dy="10">── INTERFACE BOARD ──</tspan></text><text x="424.79999999999995" y="-195.20000000000002" dominant-baseline="central" fill="#9b59b6" font-size="8" font-family="sans" text-anchor="middle"><tspan x="424.79999999999995" dy="8">ISOLATION</tspan></text><text x="511.2" y="-142.2" dominant-baseline="central" fill="black" font-size="11" font-family="sans" text-anchor="start"><tspan x="511.2" dy="11">TLP521</tspan><tspan x="511.2" dy="11">photo-NPN</tspan></text><text x="498.65999999999997" y="-211.6" dominant-baseline="central" fill="black" font-size="10" font-family="sans" text-anchor="middle"><tspan x="498.65999999999997" dy="10">── MCU SIDE (3.3V) ──</tspan></text><text x="491.46000000000004" y="-201.67999999999998" dominant-baseline="ideographic" fill="black" font-size="11" font-family="sans" text-anchor="middle"><tspan x="491.46000000000004" dy="11">MCU_RX</tspan></text><text x="495.06" y="-194.47999999999996" dominant-baseline="hanging" fill="black" font-size="11" font-family="sans" text-anchor="middle"><tspan x="495.06" dy="11">R_PU</tspan></text><text x="495.06" y="-327.68" dominant-baseline="ideographic" fill="black" font-size="11" font-family="sans" text-anchor="middle"><tspan x="495.06" dy="11">13kΩ</tspan></text><text x="491.46000000000004" y="-327.67999999999995" dominant-baseline="central" fill="black" font-size="11" font-family="sans" text-anchor="middle"><tspan x="491.46000000000004" dy="11">VCC 3.3V</tspan></text><circle cx="126.0" cy="-126.0" r="2.6999999999999997" style="stroke:black;fill:black;stroke-width:2.0;stroke-dasharray:-;" /><circle cx="495.06" cy="-187.07999999999998" r="2.6999999999999997" style="stroke:black;fill:black;stroke-width:2.0;stroke-dasharray:-;" /></svg>