<svg xmlns="http://www.w3.org/2000/svg" xmlns:xlink="http://www.w3.org/1999/xlink" xml:lang="en" height="480.88000000000005pt" width="625.316pt" viewBox="-70.15599999999999 -314.28000000000003 625.316 480.88000000000005"><circle cx="3.857637417314163e-15" cy="-63.0" r="18.0" style="stroke:black;fill:none;stroke-width:2.0;stroke-dasharray:-;" /><polygon points="182.70000000000002,-135.0 195.29999999999998,-126.0 182.70000000000002,-117.0 " style="stroke:black;fill:none;stroke-width:2.0;stroke-dasharray:-;stroke-linecap:round;stroke-linejoin:round;" /><circle cx="334.91999999999996" cy="-115.26" r="19.8" style="stroke:black;fill:none;stroke-width:2.0;stroke-dasharray:-;" /><path d="M 0.0,-0.0 L 2.7554552980815448e-15,-45.0 L 2.7554552980815448e-15,-45.0 M 4.9598195365467806e-15,-81.0 L 4.9598195365467806e-15,-81.0 L 7.715274834628325e-15,-126.0" style="stroke:black;fill:none;stroke-width:2.0;stroke-dasharray:-;stroke-linecap:round;stroke-linejoin:round;" /><path d="M 10.800000000000004,-66.60000000000001 L 5.400000000000004,-66.60000000000001 L 5.400000000000004,-61.199999999999996 L -5.399999999999996,-61.199999999999996 L -5.399999999999996,-66.60000000000001 L -10.799999999999995,-66.60000000000001" style="stroke:black;fill:none;stroke-width:2.0;stroke-dasharray:-;stroke-linecap:round;stroke-linejoin:round;" /><path d="M 0.0,-0.0 L 0.0,-0.0 L -9.0,-0.0 L 9.0,-0.0 M -6.3,4.32 L 6.3,4.32 M -1.8,8.64 L 1.8,8.64" style="stroke:black;fill:none;stroke-width:2.0;stroke-dasharray:-;stroke-linecap:round;stroke-linejoin:round;" /><path d="M 7.715274834628325e-15,-126.0 L 45.00000000000001,-126.0 L 48.00000000000001,-135.0 L 54.00000000000001,-117.0 L 60.0,-135.0 L 66.0,-117.0 L 72.0,-135.0 L 78.0,-117.0 L 81.0,-126.0 L 126.0,-126.0" style="stroke:black;fill:none;stroke-width:2.0;stroke-dasharray:-;stroke-linecap:round;stroke-linejoin:round;" /><path d="M 126.0,-126.0 L 182.70000000000002,-126.0 M 195.29999999999998,-135.0 L 195.29999999999998,-117.0 M 195.29999999999998,-126.0 L 252.0,-126.0" style="stroke:black;fill:none;stroke-width:2.0;stroke-dasharray:-;stroke-linecap:round;stroke-linejoin:round;" /><path d="M 191.70000000000002,-139.5 L 197.12779964383083,-148.9986493767039" style="stroke:black;fill:none;stroke-width:2.0;stroke-dasharray:-;stroke-linecap:round;stroke-linejoin:round;" /><path d="M 199.70772212328635 -153.5135137157511 L 199.62833989314925 -147.56976923423622 L 194.62725939451235 -150.42752951917157 Z" style="stroke:black;fill:black;stroke-linecap:butt;stroke-linejoin:miter;" /><path d="M 183.6,-139.5 L 189.02779964383078,-148.9986493767039" style="stroke:black;fill:none;stroke-width:2.0;stroke-dasharray:-;stroke-linecap:round;stroke-linejoin:round;" /><path d="M 191.60772212328632 -153.5135137157511 L 191.52833989314922 -147.56976923423622 L 186.52725939451233 -150.42752951917157 Z" style="stroke:black;fill:black;stroke-linecap:butt;stroke-linejoin:miter;" /><path d="M 252.0,-126.0 L 252.0,-117.0 L 252.0,-108.0" style="stroke:black;fill:none;stroke-width:2.0;stroke-dasharray:-;stroke-linecap:round;stroke-linejoin:round;" /><path d="M 252.0,-108.0 L 252.0,-108.0 L 243.0,-108.0 L 261.0,-108.0 M 245.70000000000002,-103.67999999999999 L 258.3,-103.67999999999999 M 250.20000000000002,-99.35999999999999 L 253.79999999999998,-99.35999999999999" style="stroke:black;fill:none;stroke-width:2.0;stroke-dasharray:-;stroke-linecap:round;stroke-linejoin:round;" /><path d="M 295.2,-234.0 L 295.2,-36.0 L 295.2,162.0" style="stroke:#9b59b6;fill:none;stroke-width:2.5;stroke-dasharray:7.4,3.2;stroke-linecap:round;stroke-linejoin:round;" /><path d="M 360.0,-234.0 L 360.0,-189.0 L 369.0,-186.0 L 351.0,-180.0 L 369.0,-174.00000000000003 L 351.0,-168.0 L 369.0,-162.0 L 351.0,-156.00000000000003 L 360.0,-153.0 L 360.0,-108.0" style="stroke:black;fill:none;stroke-width:2.0;stroke-dasharray:-;stroke-linecap:round;stroke-linejoin:round;" /><path d="M 334.91999999999996,-135.06 L 334.91999999999996,-121.86000000000001" style="stroke:black;fill:none;stroke-width:2.0;stroke-dasharray:-;stroke-linecap:round;stroke-linejoin:round;" /><path d="M 348.12,-121.85999999999999 L 321.72,-121.86000000000001" style="stroke:black;fill:none;stroke-width:2.0;stroke-dasharray:-;stroke-linecap:round;stroke-linejoin:round;" /><path d="M 341.52,-121.86000000000001 L 353.4,-108.0 L 360.0,-108.0" style="stroke:black;fill:none;stroke-width:2.0;stroke-dasharray:-;stroke-linecap:round;stroke-linejoin:round;" /><path d="M 328.32000000000005,-121.86000000000001 L 316.43999999999994,-108.00000000000001 L 309.84000000000003,-108.00000000000001" style="stroke:black;fill:none;stroke-width:2.0;stroke-dasharray:-;stroke-linecap:round;stroke-linejoin:round;" /><path d="M 328.32000000000005,-121.86000000000001 L 322.29712236110373,-114.83330942128767" style="stroke:black;fill:none;stroke-width:2.0;stroke-dasharray:-;stroke-linecap:round;stroke-linejoin:round;" /><path d="M 317.7415827469119 -109.51851320473061 L 319.5637985925886 -117.17615836572917 L 325.0304461296187 -112.49046047684617 Z" style="stroke:black;fill:black;stroke-linecap:butt;stroke-linejoin:miter;" /><path d="M 309.84000000000003,-108.00000000000001 L 309.84000000000003,-63.000000000000014 L 318.84000000000003,-60.00000000000002 L 300.84000000000003,-54.000000000000014 L 318.84000000000003,-48.00000000000002 L 300.84000000000003,-42.00000000000002 L 318.84000000000003,-36.000000000000014 L 300.84000000000003,-30.00000000000002 L 309.84000000000003,-27.000000000000014 L 309.84000000000003,17.999999999999986" style="stroke:black;fill:none;stroke-width:2.0;stroke-dasharray:-;stroke-linecap:round;stroke-linejoin:round;" /><path d="M 309.84000000000003,17.999999999999986 L 309.84000000000003,17.999999999999986 L 300.84000000000003,17.999999999999986 L 318.84000000000003,17.999999999999986 M 303.54,22.319999999999983 L 316.14000000000004,22.319999999999983 M 308.04,26.639999999999983 L 311.64000000000004,26.639999999999983" style="stroke:black;fill:none;stroke-width:2.0;stroke-dasharray:-;stroke-linecap:round;stroke-linejoin:round;" /><path d="M 309.84000000000003,-108.00000000000001 L 336.84000000000003,-108.00000000000001 L 363.84000000000003,-108.00000000000001" style="stroke:black;fill:none;stroke-width:2.0;stroke-dasharray:-;stroke-linecap:round;stroke-linejoin:round;" /><path d="M 363.84000000000003,-108.00000000000001 L 377.04,-108.00000000000001" style="stroke:black;fill:none;stroke-width:2.0;stroke-dasharray:-;stroke-linecap:round;stroke-linejoin:round;" /><path d="M 377.04,-121.20000000000002 L 377.04,-94.80000000000001" style="stroke:black;fill:none;stroke-width:2.0;stroke-dasharray:-;stroke-linecap:round;stroke-linejoin:round;" /><path d="M 377.04,-114.60000000000001 L 390.90000000000003,-126.48000000000002 L 390.90000000000003,-133.08" style="stroke:black;fill:none;stroke-width:2.0;stroke-dasharray:-;stroke-linecap:round;stroke-linejoin:round;" /><path d="M 377.04,-101.40000000000002 L 390.90000000000003,-89.52000000000002 L 390.90000000000003,-82.92000000000002" style="stroke:black;fill:none;stroke-width:2.0;stroke-dasharray:-;stroke-linecap:round;stroke-linejoin:round;" /><path d="M 377.04,-101.40000000000002 L 384.0666905787124,-95.37712236110373" style="stroke:black;fill:none;stroke-width:2.0;stroke-dasharray:-;stroke-linecap:round;stroke-linejoin:round;" /><path d="M 389.38148679526944 -90.82158274691196 L 381.72384163427085 -92.64379859258867 L 386.40953952315385 -98.11044612961881 Z" style="stroke:black;fill:black;stroke-linecap:butt;stroke-linejoin:miter;" /><path d="M 390.90000000000003,-82.92000000000002 L 390.90000000000003,-73.92000000000002 L 390.90000000000003,-64.92000000000002" style="stroke:black;fill:none;stroke-width:2.0;stroke-dasharray:-;stroke-linecap:round;stroke-linejoin:round;" /><path d="M 390.90000000000003,-64.92000000000002 L 390.90000000000003,-64.92000000000002 L 381.90000000000003,-64.92000000000002 L 399.90000000000003,-64.92000000000002 M 384.6,-60.60000000000001 L 397.20000000000005,-60.60000000000001 M 389.1,-56.280000000000015 L 392.70000000000005,-56.280000000000015" style="stroke:black;fill:none;stroke-width:2.0;stroke-dasharray:-;stroke-linecap:round;stroke-linejoin:round;" /><path d="M 390.90000000000003,-133.08 L 390.90000000000003,-151.08 L 390.90000000000003,-169.08" style="stroke:black;fill:none;stroke-width:2.0;stroke-dasharray:-;stroke-linecap:round;stroke-linejoin:round;" /><path d="M 390.90000000000003,-169.08 L 390.90000000000003,-214.08 L 381.90000000000003,-217.08 L 399.90000000000003,-223.08 L 381.90000000000003,-229.07999999999998 L 399.90000000000003,-235.08 L 381.90000000000003,-241.08 L 399.90000000000003,-247.07999999999998 L 390.90000000000003,-250.08 L 390.90000000000003,-295.08000000000004" style="stroke:black;fill:none;stroke-width:2.0;stroke-dasharray:-;stroke-linecap:round;stroke-linejoin:round;" /><path d="M 390.90000000000003,-169.08 L 399.90000000000003,-169.08 L 408.90000000000003,-169.08" style="stroke:black;fill:none;stroke-width:2.0;stroke-dasharray:-;stroke-linecap:round;stroke-linejoin:round;" /><path d="M 408.90000000000003,-169.08 L 408.90000000000003,-109.32000000000002 M 417.90000000000003,-109.32000000000002 L 399.90000000000003,-109.32000000000002 M 417.90000000000003,-102.84000000000003 L 399.90000000000003,-102.84000000000003 M 408.90000000000003,-102.84000000000003 L 408.90000000000003,-43.08000000000002" style="stroke:black;fill:none;stroke-width:2.0;stroke-dasharray:-;stroke-linecap:round;stroke-linejoin:round;" /><path d="M 408.90000000000003,-43.08000000000002 L 408.90000000000003,-43.08000000000002 L 399.90000000000003,-43.08000000000002 L 417.90000000000003,-43.08000000000002 M 402.6,-38.76000000000002 L 415.20000000000005,-38.76000000000002 M 407.1,-34.44000000000002 L 410.70000000000005,-34.44000000000002" style="stroke:black;fill:none;stroke-width:2.0;stroke-dasharray:-;stroke-linecap:round;stroke-linejoin:round;" /><text x="-21.599999999999994" y="-74.0" dominant-baseline="central" fill="black" font-size="11" font-family="sans" text-anchor="end"><tspan x="-21.599999999999994" dy="11">MCU_TX</tspan></text><text x="21.6" y="-74.0" dominant-baseline="central" fill="black" font-size="11" font-family="sans" text-anchor="start"><tspan x="21.6" dy="11">0/3.3V</tspan></text><text x="-3.599999999999996" y="-211.6" dominant-baseline="central" fill="black" font-size="10" font-family="sans" text-anchor="middle"><tspan x="-3.599999999999996" dy="10">── MCU SIDE (3.3V) ──</tspan></text><text x="63.00000000000001" y="-149.6" dominant-baseline="ideographic" fill="black" font-size="11" font-family="sans" text-anchor="middle"><tspan x="63.00000000000001" dy="11">R_TX</tspan></text><text x="63.00000000000001" y="-124.39999999999999" dominant-baseline="hanging" fill="black" font-size="11" font-family="sans" text-anchor="middle"><tspan x="63.00000000000001" dy="11">330Ω</tspan></text><text x="189.0" y="-175.60999999999999" dominant-baseline="ideographic" fill="black" font-size="11" font-family="sans" text-anchor="middle"><tspan x="189.0" dy="11">TLP521</tspan></text><text x="189.0" y="-124.39999999999999" dominant-baseline="hanging" fill="black" font-size="11" font-family="sans" text-anchor="middle"><tspan x="189.0" dy="11">LED</tspan></text><text x="298.79999999999995" y="-249.20000000000002" dominant-baseline="central" fill="#9b59b6" font-size="8" font-family="sans" text-anchor="middle"><tspan x="298.79999999999995" dy="8">ISOLATION</tspan></text><text x="363.59999999999997" y="-241.4" dominant-baseline="central" fill="black" font-size="11" font-family="sans" text-anchor="middle"><tspan x="363.59999999999997" dy="11">V_DIAG 12V</tspan></text><text x="363.59999999999997" y="-204.4" dominant-baseline="central" fill="black" font-size="10" font-family="sans" text-anchor="middle"><tspan x="363.59999999999997" dy="10">── INTERFACE: CAR SIDE (12V) ──</tspan></text><text x="360.0" y="-115.39999999999999" dominant-baseline="hanging" fill="black" font-size="11" font-family="sans" text-anchor="middle"><tspan x="360.0" dy="11">R_OC</tspan></text><text x="360.0" y="-248.6" dominant-baseline="ideographic" fill="black" font-size="11" font-family="sans" text-anchor="middle"><tspan x="360.0" dy="11">1kΩ</tspan></text><text x="334.62" y="-102.86" dominant-baseline="hanging" fill="black" font-size="11" font-family="sans" text-anchor="middle"><tspan x="334.62" dy="11">TLP521</tspan></text><text x="334.62" y="-154.66" dominant-baseline="ideographic" fill="black" font-size="8" font-family="sans" text-anchor="middle"><tspan x="334.62" dy="8">photo-NPN</tspan><tspan x="334.62" dy="8">(emitter-follower)</tspan></text><text x="309.84000000000003" y="10.599999999999987" dominant-baseline="hanging" fill="black" font-size="11" font-family="sans" text-anchor="middle"><tspan x="309.84000000000003" dy="11">R_PD</tspan></text><text x="309.84000000000003" y="-122.60000000000002" dominant-baseline="ideographic" fill="black" font-size="11" font-family="sans" text-anchor="middle"><tspan x="309.84000000000003" dy="11">10kΩ</tspan></text><text x="360.24" y="-118.70000000000002" dominant-baseline="central" fill="black" font-size="11" font-family="sans" text-anchor="end"><tspan x="360.24" dy="11">Q_DRV</tspan></text><text x="394.5" y="-118.70000000000002" dominant-baseline="central" fill="black" font-size="11" font-family="sans" text-anchor="start"><tspan x="394.5" dy="11">2N2222</tspan></text><text x="387.30000000000007" y="-183.68" dominant-baseline="central" fill="black" font-size="11" font-family="sans" text-anchor="end"><tspan x="387.30000000000007" dy="11">DIAG PIN</tspan></text><text x="495.30000000000007" y="-211.6" dominant-baseline="central" fill="black" font-size="10" font-family="sans" text-anchor="middle"><tspan x="495.30000000000007" dy="10">── CAR PORT MODEL ──</tspan></text><text x="390.90000000000003" y="-176.48000000000002" dominant-baseline="hanging" fill="black" font-size="11" font-family="sans" text-anchor="middle"><tspan x="390.90000000000003" dy="11">R_PULL</tspan></text><text x="390.90000000000003" y="-309.68" dominant-baseline="ideographic" fill="black" font-size="11" font-family="sans" text-anchor="middle"><tspan x="390.90000000000003" dy="11">680Ω</tspan></text><text x="387.30000000000007" y="-309.68" dominant-baseline="central" fill="black" font-size="11" font-family="sans" text-anchor="middle"><tspan x="387.30000000000007" dy="11">V_BAT 12V</tspan></text><text x="408.90000000000003" y="-50.48000000000003" dominant-baseline="hanging" fill="black" font-size="11" font-family="sans" text-anchor="middle"><tspan x="408.90000000000003" dy="11">C_CABLE</tspan></text><text x="408.90000000000003" y="-183.68" dominant-baseline="ideographic" fill="black" font-size="11" font-family="sans" text-anchor="middle"><tspan x="408.90000000000003" dy="11">500pF</tspan></text><circle cx="309.84000000000003" cy="-108.00000000000001" r="2.6999999999999997" style="stroke:black;fill:black;stroke-width:2.0;stroke-dasharray:-;" /><circle cx="390.90000000000003" cy="-169.08" r="2.6999999999999997" style="stroke:black;fill:black;stroke-width:2.0;stroke-dasharray:-;" /></svg>