<svg xmlns="http://www.w3.org/2000/svg" xmlns:xlink="http://www.w3.org/1999/xlink" xml:lang="en" height="508.9pt" width="493.6062863405994pt" viewBox="-142.77399999999997 -198.19999999999996 493.6062863405994 508.9"><circle cx="3.3065463576978533e-15" cy="-18.0" r="18.0" style="stroke:black;fill:none;stroke-width:2.0;stroke-dasharray:-;" /><polygon points="99.0,-119.7 108.0,-132.29999999999998 117.0,-119.7 " style="stroke:black;fill:none;stroke-width:2.0;stroke-dasharray:-;stroke-linecap:round;stroke-linejoin:round;" /><polygon points="99.0,-13.5 107.99999999999999,-0.9000000000000048 116.99999999999999,-13.5 " style="stroke:black;fill:none;stroke-width:2.0;stroke-dasharray:-;stroke-linecap:round;stroke-linejoin:round;" /><circle cx="3.3065463576978533e-15" cy="216.0" r="18.0" style="stroke:black;fill:none;stroke-width:2.0;stroke-dasharray:-;" /><polygon points="99.0,114.3 108.0,101.7 117.0,114.3 " style="stroke:black;fill:none;stroke-width:2.0;stroke-dasharray:-;stroke-linecap:round;stroke-linejoin:round;" /><polygon points="99.0,220.5 107.99999999999999,233.1 116.99999999999999,220.5 " style="stroke:black;fill:none;stroke-width:2.0;stroke-dasharray:-;stroke-linecap:round;stroke-linejoin:round;" /><path d="M 0.0,36.0 L 2.204364238465236e-15,-0.0 L 2.204364238465236e-15,-0.0 M 4.408728476930472e-15,-36.0 L 4.408728476930472e-15,-36.0 L 6.613092715395707e-15,-72.0" style="stroke:black;fill:none;stroke-width:2.0;stroke-dasharray:-;stroke-linecap:round;stroke-linejoin:round;" /><path d="M -3.599999999999996,-27.0 L 3.600000000000004,-27.0" style="stroke:black;fill:none;stroke-width:2.0;stroke-dasharray:-;stroke-linecap:round;stroke-linejoin:round;" /><path d="M 2.5350188742350208e-15,-5.399999999999997 L 2.9758917219280684e-15,-12.600000000000003" style="stroke:black;fill:none;stroke-width:2.0;stroke-dasharray:-;stroke-linecap:round;stroke-linejoin:round;" /><path d="M -3.599999999999997,-9.0 L 3.600000000000003,-9.0" style="stroke:black;fill:none;stroke-width:2.0;stroke-dasharray:-;stroke-linecap:round;stroke-linejoin:round;" /><path d="M 0.0,36.0 L 0.0,36.0 L -9.0,36.0 L 9.0,36.0 M -6.3,40.32000000000001 L 6.3,40.32000000000001 M -1.8,44.64 L 1.8,44.64" style="stroke:black;fill:none;stroke-width:2.0;stroke-dasharray:-;stroke-linecap:round;stroke-linejoin:round;" /><path d="M 6.613092715395707e-15,-72.0 L 36.00000000000001,-72.0 L 39.00000000000001,-81.0 L 45.00000000000001,-63.0 L 51.0,-81.0 L 57.00000000000001,-63.0 L 63.00000000000001,-81.0 L 69.0,-63.0 L 72.0,-72.0 L 108.0,-72.0" style="stroke:black;fill:none;stroke-width:2.0;stroke-dasharray:-;stroke-linecap:round;stroke-linejoin:round;" /><path d="M 108.0,-72.0 L 108.0,-36.0 L 117.0,-33.0 L 99.0,-27.0 L 116.99999999999999,-21.000000000000007 L 98.99999999999999,-15.000000000000004 L 116.99999999999999,-9.0 L 98.99999999999999,-3.0000000000000053 L 107.99999999999999,-0.0 L 107.99999999999999,36.0" style="stroke:black;fill:none;stroke-width:2.0;stroke-dasharray:-;stroke-linecap:round;stroke-linejoin:round;" /><path d="M 107.99999999999999,36.0 L 107.99999999999999,36.0 L 98.99999999999999,36.0 L 116.99999999999999,36.0 M 101.69999999999999,40.32000000000001 L 114.29999999999998,40.32000000000001 M 106.19999999999999,44.64 L 109.79999999999998,44.64" style="stroke:black;fill:none;stroke-width:2.0;stroke-dasharray:-;stroke-linecap:round;stroke-linejoin:round;" /><path d="M 108.0,-72.0 L 108.0,-119.7 M 99.0,-132.29999999999998 L 117.0,-132.29999999999998 M 108.0,-132.29999999999998 L 108.0,-180.0" style="stroke:black;fill:none;stroke-width:2.0;stroke-dasharray:-;stroke-linecap:round;stroke-linejoin:round;" /><path d="M 108.0,-72.0 L 108.0,-66.60000000000001 L 108.0,-61.199999999999996" style="stroke:black;fill:none;stroke-width:2.0;stroke-dasharray:-;stroke-linecap:round;stroke-linejoin:round;" /><path d="M 108.0,-61.199999999999996 L 107.99999999999999,-13.5 M 98.99999999999999,-0.9000000000000048 L 116.99999999999999,-0.9000000000000048 M 107.99999999999999,-0.9000000000000048 L 107.99999999999999,46.800000000000004" style="stroke:black;fill:none;stroke-width:2.0;stroke-dasharray:-;stroke-linecap:round;stroke-linejoin:round;" /><path d="M 107.99999999999999,46.800000000000004 L 107.99999999999999,46.800000000000004 L 98.99999999999999,46.800000000000004 L 116.99999999999999,46.800000000000004 M 101.69999999999999,51.12 L 114.29999999999998,51.12 M 106.19999999999999,55.44 L 109.79999999999998,55.44" style="stroke:black;fill:none;stroke-width:2.0;stroke-dasharray:-;stroke-linecap:round;stroke-linejoin:round;" /><path d="M 108.0,-72.0 L 117.0,-72.0 L 126.0,-72.0" style="stroke:black;fill:none;stroke-width:2.0;stroke-dasharray:-;stroke-linecap:round;stroke-linejoin:round;" /><path d="M 126.0,-49.5 L 126.0,-94.5 L 203.94228634059948,-49.5 L 126.0,-4.5 L 126.0,-49.5 M 203.94228634059948,-49.5" style="stroke:black;fill:none;stroke-width:2.0;stroke-dasharray:-;stroke-linecap:round;stroke-linejoin:round;" /><path d="M 132.14278579257493,-72.0 L 139.34278579257494,-72.0" style="stroke:black;fill:none;stroke-width:2.0;stroke-dasharray:-;stroke-linecap:round;stroke-linejoin:round;" /><path d="M 132.14278579257493,-27.0 L 139.34278579257494,-27.0" style="stroke:black;fill:none;stroke-width:2.0;stroke-dasharray:-;stroke-linecap:round;stroke-linejoin:round;" /><path d="M 135.74278579257492,-23.4 L 135.74278579257492,-30.6" style="stroke:black;fill:none;stroke-width:2.0;stroke-dasharray:-;stroke-linecap:round;stroke-linejoin:round;" /><path d="M 203.94228634059948,-49.5 L 149.94228634059948,-49.5 L 149.94228634059948,-27.0 L 126.0,-27.0" style="stroke:gray;fill:none;stroke-width:2.0;stroke-dasharray:-;stroke-linecap:round;stroke-linejoin:round;" /><path d="M 203.94228634059948,-49.5 L 239.94228634059948,-49.5 L 242.94228634059945,-58.5 L 248.94228634059948,-40.5 L 254.94228634059948,-58.5 L 260.9422863405995,-40.5 L 266.9422863405995,-58.5 L 272.9422863405995,-40.5 L 275.9422863405995,-49.5 L 311.9422863405994,-49.5" style="stroke:black;fill:none;stroke-width:2.0;stroke-dasharray:-;stroke-linecap:round;stroke-linejoin:round;" /><path d="M 311.9422863405994,-49.5 L 311.9422863405994,1.2599999999999971 M 320.9422863405994,1.2599999999999971 L 302.9422863405994,1.2599999999999971 M 320.9422863405994,7.739999999999995 L 302.9422863405994,7.739999999999995 M 311.9422863405994,7.739999999999995 L 311.9422863405994,58.5" style="stroke:black;fill:none;stroke-width:2.0;stroke-dasharray:-;stroke-linecap:round;stroke-linejoin:round;" /><path d="M 311.9422863405994,58.5 L 311.9422863405994,58.5 L 302.9422863405994,58.5 L 320.9422863405994,58.5 M 305.6422863405994,62.82000000000001 L 318.24228634059943,62.82000000000001 M 310.1422863405994,67.14 L 313.74228634059943,67.14" style="stroke:black;fill:none;stroke-width:2.0;stroke-dasharray:-;stroke-linecap:round;stroke-linejoin:round;" /><path d="M 311.9422863405994,-49.5 L 320.9422863405994,-49.5 L 329.9422863405994,-49.5" style="stroke:black;fill:none;stroke-width:2.0;stroke-dasharray:-;stroke-linecap:round;stroke-linejoin:round;" /><path d="M 329.9422863405994,-49.5 L 329.9422863405994,-13.5 L 338.9422863405994,-10.500000000000004 L 320.9422863405994,-4.5 L 338.9422863405994,1.4999999999999947 L 320.9422863405994,7.499999999999997 L 338.9422863405994,13.5 L 320.9422863405994,19.499999999999993 L 329.9422863405994,22.5 L 329.9422863405994,58.5" style="stroke:black;fill:none;stroke-width:2.0;stroke-dasharray:-;stroke-linecap:round;stroke-linejoin:round;" /><path d="M 329.9422863405994,58.5 L 329.9422863405994,58.5 L 320.9422863405994,58.5 L 338.9422863405994,58.5 M 323.6422863405994,62.82000000000001 L 336.24228634059943,62.82000000000001 M 328.1422863405994,67.14 L 331.74228634059943,67.14" style="stroke:black;fill:none;stroke-width:2.0;stroke-dasharray:-;stroke-linecap:round;stroke-linejoin:round;" /><path d="M 0.0,270.0 L 2.204364238465236e-15,234.0 L 2.204364238465236e-15,234.0 M 4.408728476930472e-15,198.0 L 4.408728476930472e-15,198.0 L 6.613092715395707e-15,162.0" style="stroke:black;fill:none;stroke-width:2.0;stroke-dasharray:-;stroke-linecap:round;stroke-linejoin:round;" /><path d="M -3.599999999999996,207.0 L 3.600000000000004,207.0" style="stroke:black;fill:none;stroke-width:2.0;stroke-dasharray:-;stroke-linecap:round;stroke-linejoin:round;" /><path d="M 2.5350188742350208e-15,228.6 L 2.9758917219280684e-15,221.4" style="stroke:black;fill:none;stroke-width:2.0;stroke-dasharray:-;stroke-linecap:round;stroke-linejoin:round;" /><path d="M -3.599999999999997,225.0 L 3.600000000000003,225.0" style="stroke:black;fill:none;stroke-width:2.0;stroke-dasharray:-;stroke-linecap:round;stroke-linejoin:round;" /><path d="M 0.0,270.0 L 0.0,270.0 L -9.0,270.0 L 9.0,270.0 M -6.3,274.32 L 6.3,274.32 M -1.8,278.64 L 1.8,278.64" style="stroke:black;fill:none;stroke-width:2.0;stroke-dasharray:-;stroke-linecap:round;stroke-linejoin:round;" /><path d="M 6.613092715395707e-15,162.0 L 36.00000000000001,162.0 L 39.00000000000001,153.0 L 45.00000000000001,171.0 L 51.0,153.0 L 57.00000000000001,171.0 L 63.00000000000001,153.0 L 69.0,171.0 L 72.0,162.0 L 108.0,162.0" style="stroke:black;fill:none;stroke-width:2.0;stroke-dasharray:-;stroke-linecap:round;stroke-linejoin:round;" /><path d="M 108.0,162.0 L 108.0,198.0 L 117.0,201.0 L 99.0,207.0 L 116.99999999999999,212.99999999999997 L 98.99999999999999,219.0 L 116.99999999999999,225.0 L 98.99999999999999,230.99999999999997 L 107.99999999999999,234.0 L 107.99999999999999,270.0" style="stroke:black;fill:none;stroke-width:2.0;stroke-dasharray:-;stroke-linecap:round;stroke-linejoin:round;" /><path d="M 107.99999999999999,270.0 L 107.99999999999999,270.0 L 98.99999999999999,270.0 L 116.99999999999999,270.0 M 101.69999999999999,274.32 L 114.29999999999998,274.32 M 106.19999999999999,278.64 L 109.79999999999998,278.64" style="stroke:black;fill:none;stroke-width:2.0;stroke-dasharray:-;stroke-linecap:round;stroke-linejoin:round;" /><path d="M 108.0,162.0 L 108.0,114.3 M 99.0,101.7 L 117.0,101.7 M 108.0,101.7 L 108.0,54.0" style="stroke:black;fill:none;stroke-width:2.0;stroke-dasharray:-;stroke-linecap:round;stroke-linejoin:round;" /><path d="M 108.0,162.0 L 108.0,167.4 L 108.0,172.79999999999998" style="stroke:black;fill:none;stroke-width:2.0;stroke-dasharray:-;stroke-linecap:round;stroke-linejoin:round;" /><path d="M 108.0,172.79999999999998 L 107.99999999999999,220.5 M 98.99999999999999,233.1 L 116.99999999999999,233.1 M 107.99999999999999,233.1 L 107.99999999999999,280.8" style="stroke:black;fill:none;stroke-width:2.0;stroke-dasharray:-;stroke-linecap:round;stroke-linejoin:round;" /><path d="M 107.99999999999999,280.8 L 107.99999999999999,280.8 L 98.99999999999999,280.8 L 116.99999999999999,280.8 M 101.69999999999999,285.12 L 114.29999999999998,285.12 M 106.19999999999999,289.43999999999994 L 109.79999999999998,289.43999999999994" style="stroke:black;fill:none;stroke-width:2.0;stroke-dasharray:-;stroke-linecap:round;stroke-linejoin:round;" /><path d="M 108.0,162.0 L 117.0,162.0 L 126.0,162.0" style="stroke:black;fill:none;stroke-width:2.0;stroke-dasharray:-;stroke-linecap:round;stroke-linejoin:round;" /><path d="M 126.0,184.5 L 126.0,139.5 L 203.94228634059948,184.5 L 126.0,229.5 L 126.0,184.5 M 203.94228634059948,184.5" style="stroke:black;fill:none;stroke-width:2.0;stroke-dasharray:-;stroke-linecap:round;stroke-linejoin:round;" /><path d="M 132.14278579257493,162.0 L 139.34278579257494,162.0" style="stroke:black;fill:none;stroke-width:2.0;stroke-dasharray:-;stroke-linecap:round;stroke-linejoin:round;" /><path d="M 132.14278579257493,207.0 L 139.34278579257494,207.0" style="stroke:black;fill:none;stroke-width:2.0;stroke-dasharray:-;stroke-linecap:round;stroke-linejoin:round;" /><path d="M 135.74278579257492,210.6 L 135.74278579257492,203.4" style="stroke:black;fill:none;stroke-width:2.0;stroke-dasharray:-;stroke-linecap:round;stroke-linejoin:round;" /><path d="M 203.94228634059948,184.5 L 149.94228634059948,184.5 L 149.94228634059948,207.0 L 126.0,207.0" style="stroke:gray;fill:none;stroke-width:2.0;stroke-dasharray:-;stroke-linecap:round;stroke-linejoin:round;" /><path d="M 203.94228634059948,184.5 L 239.94228634059948,184.5 L 242.94228634059945,175.5 L 248.94228634059948,193.5 L 254.94228634059948,175.5 L 260.9422863405995,193.5 L 266.9422863405995,175.5 L 272.9422863405995,193.5 L 275.9422863405995,184.5 L 311.9422863405994,184.5" style="stroke:black;fill:none;stroke-width:2.0;stroke-dasharray:-;stroke-linecap:round;stroke-linejoin:round;" /><path d="M 311.9422863405994,184.5 L 311.9422863405994,235.26 M 320.9422863405994,235.26 L 302.9422863405994,235.26 M 320.9422863405994,241.74 L 302.9422863405994,241.74 M 311.9422863405994,241.74 L 311.9422863405994,292.5" style="stroke:black;fill:none;stroke-width:2.0;stroke-dasharray:-;stroke-linecap:round;stroke-linejoin:round;" /><path d="M 311.9422863405994,292.5 L 311.9422863405994,292.5 L 302.9422863405994,292.5 L 320.9422863405994,292.5 M 305.6422863405994,296.82 L 318.24228634059943,296.82 M 310.1422863405994,301.14 L 313.74228634059943,301.14" style="stroke:black;fill:none;stroke-width:2.0;stroke-dasharray:-;stroke-linecap:round;stroke-linejoin:round;" /><path d="M 311.9422863405994,184.5 L 320.9422863405994,184.5 L 329.9422863405994,184.5" style="stroke:black;fill:none;stroke-width:2.0;stroke-dasharray:-;stroke-linecap:round;stroke-linejoin:round;" /><path d="M 329.9422863405994,184.5 L 329.9422863405994,220.5 L 338.9422863405994,223.5 L 320.9422863405994,229.5 L 338.9422863405994,235.49999999999997 L 320.9422863405994,241.5 L 338.9422863405994,247.5 L 320.9422863405994,253.49999999999997 L 329.9422863405994,256.5 L 329.9422863405994,292.5" style="stroke:black;fill:none;stroke-width:2.0;stroke-dasharray:-;stroke-linecap:round;stroke-linejoin:round;" /><path d="M 329.9422863405994,292.5 L 329.9422863405994,292.5 L 320.9422863405994,292.5 L 338.9422863405994,292.5 M 323.6422863405994,296.82 L 336.24228634059943,296.82 M 328.1422863405994,301.14 L 331.74228634059943,301.14" style="stroke:black;fill:none;stroke-width:2.0;stroke-dasharray:-;stroke-linecap:round;stroke-linejoin:round;" /><text x="-21.599999999999994" y="-28.0" dominant-baseline="central" fill="black" font-size="10" font-family="sans" text-anchor="end"><tspan x="-21.599999999999994" dy="10">V_BAT</tspan></text><text x="21.6" y="-28.0" dominant-baseline="central" fill="black" font-size="10" font-family="sans" text-anchor="start"><tspan x="21.6" dy="10">12V</tspan></text><text x="-3.5999999999999965" y="-140.6" dominant-baseline="central" fill="black" font-size="11" font-family="sans" text-anchor="middle"><tspan x="-3.5999999999999965" dy="11">PATH 1: BATTERY VOLTAGE (0–14.4V → 0–2.6V)</tspan></text><text x="54.00000000000001" y="-94.60000000000001" dominant-baseline="ideographic" fill="black" font-size="10" font-family="sans" text-anchor="middle"><tspan x="54.00000000000001" dy="10">R1</tspan></text><text x="54.00000000000001" y="-69.4" dominant-baseline="hanging" fill="black" font-size="10" font-family="sans" text-anchor="middle"><tspan x="54.00000000000001" dy="10">10kΩ</tspan></text><text x="107.99999999999999" y="29.6" dominant-baseline="hanging" fill="black" font-size="10" font-family="sans" text-anchor="middle"><tspan x="107.99999999999999" dy="10">R2</tspan></text><text x="108.0" y="-85.60000000000001" dominant-baseline="ideographic" fill="black" font-size="10" font-family="sans" text-anchor="middle"><tspan x="108.0" dy="10">2.2kΩ</tspan></text><text x="108.0" y="-78.39999999999999" dominant-baseline="hanging" fill="black" font-size="10" font-family="sans" text-anchor="middle"><tspan x="108.0" dy="10">D1</tspan></text><text x="108.0" y="-193.6" dominant-baseline="ideographic" fill="black" font-size="10" font-family="sans" text-anchor="middle"><tspan x="108.0" dy="10">1N4148</tspan></text><text x="104.39999999999999" y="-193.6" dominant-baseline="central" fill="black" font-size="10" font-family="sans" text-anchor="middle"><tspan x="104.39999999999999" dy="10">3.3V</tspan></text><text x="107.99999999999999" y="40.39999999999999" dominant-baseline="hanging" fill="black" font-size="10" font-family="sans" text-anchor="middle"><tspan x="107.99999999999999" dy="10">D2</tspan></text><text x="108.0" y="-74.8" dominant-baseline="ideographic" fill="black" font-size="10" font-family="sans" text-anchor="middle"><tspan x="108.0" dy="10">1N4148</tspan></text><text x="168.57114317029973" y="-61.1" dominant-baseline="central" fill="black" font-size="8" font-family="sans" text-anchor="middle"><tspan x="168.57114317029973" dy="8">LM358</tspan></text><text x="257.9422863405995" y="-72.1" dominant-baseline="ideographic" fill="black" font-size="10" font-family="sans" text-anchor="middle"><tspan x="257.9422863405995" dy="10">R3</tspan></text><text x="257.9422863405995" y="-46.9" dominant-baseline="hanging" fill="black" font-size="10" font-family="sans" text-anchor="middle"><tspan x="257.9422863405995" dy="10">1kΩ</tspan></text><text x="315.54228634059945" y="-63.1" dominant-baseline="ideographic" fill="black" font-size="10" font-family="sans" text-anchor="middle"><tspan x="315.54228634059945" dy="10">ADC_BAT</tspan></text><text x="311.9422863405994" y="52.09999999999999" dominant-baseline="hanging" fill="black" font-size="10" font-family="sans" text-anchor="middle"><tspan x="311.9422863405994" dy="10">C1</tspan></text><text x="311.9422863405994" y="-63.1" dominant-baseline="ideographic" fill="black" font-size="10" font-family="sans" text-anchor="middle"><tspan x="311.9422863405994" dy="10">100nF</tspan></text><text x="329.9422863405994" y="52.1" dominant-baseline="hanging" fill="black" font-size="10" font-family="sans" text-anchor="middle"><tspan x="329.9422863405994" dy="10">R_ADC</tspan></text><text x="329.9422863405994" y="-63.1" dominant-baseline="ideographic" fill="black" font-size="10" font-family="sans" text-anchor="middle"><tspan x="329.9422863405994" dy="10">10MΩ</tspan></text><text x="-21.599999999999994" y="206.0" dominant-baseline="central" fill="black" font-size="10" font-family="sans" text-anchor="end"><tspan x="-21.599999999999994" dy="10">V_AIR</tspan></text><text x="21.6" y="206.0" dominant-baseline="central" fill="black" font-size="10" font-family="sans" text-anchor="start"><tspan x="21.6" dy="10">0–5V</tspan></text><text x="-3.5999999999999965" y="93.39999999999999" dominant-baseline="central" fill="black" font-size="11" font-family="sans" text-anchor="middle"><tspan x="-3.5999999999999965" dy="11">PATH 2: AIRFLOW POTENTIOMETER (0–5V → 0–2.5V)</tspan></text><text x="54.00000000000001" y="139.4" dominant-baseline="ideographic" fill="black" font-size="10" font-family="sans" text-anchor="middle"><tspan x="54.00000000000001" dy="10">R4</tspan></text><text x="54.00000000000001" y="164.6" dominant-baseline="hanging" fill="black" font-size="10" font-family="sans" text-anchor="middle"><tspan x="54.00000000000001" dy="10">10kΩ</tspan></text><text x="107.99999999999999" y="263.59999999999997" dominant-baseline="hanging" fill="black" font-size="10" font-family="sans" text-anchor="middle"><tspan x="107.99999999999999" dy="10">R5</tspan></text><text x="108.0" y="148.4" dominant-baseline="ideographic" fill="black" font-size="10" font-family="sans" text-anchor="middle"><tspan x="108.0" dy="10">10kΩ</tspan></text><text x="108.0" y="155.6" dominant-baseline="hanging" fill="black" font-size="10" font-family="sans" text-anchor="middle"><tspan x="108.0" dy="10">D3</tspan></text><text x="108.0" y="40.40000000000001" dominant-baseline="ideographic" fill="black" font-size="10" font-family="sans" text-anchor="middle"><tspan x="108.0" dy="10">1N4148</tspan></text><text x="104.39999999999999" y="40.4" dominant-baseline="central" fill="black" font-size="10" font-family="sans" text-anchor="middle"><tspan x="104.39999999999999" dy="10">3.3V</tspan></text><text x="107.99999999999999" y="274.4" dominant-baseline="hanging" fill="black" font-size="10" font-family="sans" text-anchor="middle"><tspan x="107.99999999999999" dy="10">D4</tspan></text><text x="108.0" y="159.2" dominant-baseline="ideographic" fill="black" font-size="10" font-family="sans" text-anchor="middle"><tspan x="108.0" dy="10">1N4148</tspan></text><text x="168.57114317029973" y="172.9" dominant-baseline="central" fill="black" font-size="8" font-family="sans" text-anchor="middle"><tspan x="168.57114317029973" dy="8">LM358</tspan></text><text x="257.9422863405995" y="161.9" dominant-baseline="ideographic" fill="black" font-size="10" font-family="sans" text-anchor="middle"><tspan x="257.9422863405995" dy="10">R6</tspan></text><text x="257.9422863405995" y="187.1" dominant-baseline="hanging" fill="black" font-size="10" font-family="sans" text-anchor="middle"><tspan x="257.9422863405995" dy="10">1kΩ</tspan></text><text x="315.54228634059945" y="170.9" dominant-baseline="ideographic" fill="black" font-size="10" font-family="sans" text-anchor="middle"><tspan x="315.54228634059945" dy="10">ADC_AIR</tspan></text><text x="311.9422863405994" y="286.09999999999997" dominant-baseline="hanging" fill="black" font-size="10" font-family="sans" text-anchor="middle"><tspan x="311.9422863405994" dy="10">C2</tspan></text><text x="311.9422863405994" y="170.9" dominant-baseline="ideographic" fill="black" font-size="10" font-family="sans" text-anchor="middle"><tspan x="311.9422863405994" dy="10">100nF</tspan></text><text x="329.9422863405994" y="286.09999999999997" dominant-baseline="hanging" fill="black" font-size="10" font-family="sans" text-anchor="middle"><tspan x="329.9422863405994" dy="10">R_ADC</tspan></text><text x="329.9422863405994" y="170.9" dominant-baseline="ideographic" fill="black" font-size="10" font-family="sans" text-anchor="middle"><tspan x="329.9422863405994" dy="10">10MΩ</tspan></text><circle cx="108.0" cy="-72.0" r="2.6999999999999997" style="stroke:black;fill:black;stroke-width:2.0;stroke-dasharray:-;" /><circle cx="311.9422863405994" cy="-49.5" r="2.6999999999999997" style="stroke:black;fill:black;stroke-width:2.0;stroke-dasharray:-;" /><circle cx="108.0" cy="162.0" r="2.6999999999999997" style="stroke:black;fill:black;stroke-width:2.0;stroke-dasharray:-;" /><circle cx="311.9422863405994" cy="184.5" r="2.6999999999999997" style="stroke:black;fill:black;stroke-width:2.0;stroke-dasharray:-;" /></svg>