<svg xmlns="http://www.w3.org/2000/svg" xmlns:xlink="http://www.w3.org/1999/xlink" xml:lang="en" height="659.8800000000001pt" width="762.5599999999998pt" viewBox="-57.76 -295.28000000000003 762.5599999999998 659.8800000000001"><circle cx="3.3065463576978533e-15" cy="-54.0" r="18.0" style="stroke:black;fill:none;stroke-width:2.0;stroke-dasharray:-;" /><circle cx="62.94" cy="-79.08" r="18.0" style="stroke:black;fill:none;stroke-width:2.0;stroke-dasharray:-;" /><polygon points="263.7,-117.0 276.3,-108.0 263.7,-99.0 " style="stroke:black;fill:none;stroke-width:2.0;stroke-dasharray:-;stroke-linecap:round;stroke-linejoin:round;" /><circle cx="433.8" cy="-108.0" r="19.8" style="stroke:black;fill:none;stroke-width:2.0;stroke-dasharray:-;" /><circle cx="475.2" cy="90.0" r="18.0" style="stroke:black;fill:none;stroke-width:2.0;stroke-dasharray:-;" /><polygon points="630.9,27.0 643.5,36.0 630.9,45.0 " style="stroke:black;fill:none;stroke-width:2.0;stroke-dasharray:-;stroke-linecap:round;stroke-linejoin:round;" /><circle cx="234.11999999999995" cy="64.74" r="19.8" style="stroke:black;fill:none;stroke-width:2.0;stroke-dasharray:-;" /><path d="M 0.0,-0.0 L 2.204364238465236e-15,-36.0 L 2.204364238465236e-15,-36.0 M 4.408728476930472e-15,-72.0 L 4.408728476930472e-15,-72.0 L 6.613092715395707e-15,-108.0" style="stroke:black;fill:none;stroke-width:2.0;stroke-dasharray:-;stroke-linecap:round;stroke-linejoin:round;" /><path d="M -3.599999999999996,-63.0 L 3.600000000000004,-63.0" style="stroke:black;fill:none;stroke-width:2.0;stroke-dasharray:-;stroke-linecap:round;stroke-linejoin:round;" /><path d="M 2.5350188742350208e-15,-41.4 L 2.9758917219280684e-15,-48.6" style="stroke:black;fill:none;stroke-width:2.0;stroke-dasharray:-;stroke-linecap:round;stroke-linejoin:round;" /><path d="M -3.599999999999997,-45.0 L 3.600000000000003,-45.0" style="stroke:black;fill:none;stroke-width:2.0;stroke-dasharray:-;stroke-linecap:round;stroke-linejoin:round;" /><path d="M 0.0,-0.0 L 0.0,-0.0 L -9.0,-0.0 L 9.0,-0.0 M -6.3,4.32 L 6.3,4.32 M -1.8,8.64 L 1.8,8.64" style="stroke:black;fill:none;stroke-width:2.0;stroke-dasharray:-;stroke-linecap:round;stroke-linejoin:round;" /><path d="M 6.613092715395707e-15,-108.0 L 36.00000000000001,-108.0 L 39.00000000000001,-117.0 L 45.00000000000001,-99.0 L 51.0,-117.0 L 57.00000000000001,-99.0 L 63.00000000000001,-117.0 L 69.0,-99.0 L 72.0,-108.0 L 108.0,-108.0" style="stroke:black;fill:none;stroke-width:2.0;stroke-dasharray:-;stroke-linecap:round;stroke-linejoin:round;" /><path d="M 80.94000000000001,-133.08 L 94.14000000000001,-133.08" style="stroke:black;fill:none;stroke-width:2.0;stroke-dasharray:-;stroke-linecap:round;stroke-linejoin:round;" /><path d="M 94.14000000000001,-119.88 L 94.14000000000001,-146.28" style="stroke:black;fill:none;stroke-width:2.0;stroke-dasharray:-;stroke-linecap:round;stroke-linejoin:round;" /><path d="M 94.14000000000001,-126.47999999999999 L 108.0,-114.60000000000001 L 108.0,-108.0" style="stroke:black;fill:none;stroke-width:2.0;stroke-dasharray:-;stroke-linecap:round;stroke-linejoin:round;" /><path d="M 94.14000000000001,-139.68 L 108.0,-151.56 L 108.0,-158.16" style="stroke:black;fill:none;stroke-width:2.0;stroke-dasharray:-;stroke-linecap:round;stroke-linejoin:round;" /><path d="M 94.14000000000001,-139.68 L 101.16669057871233,-145.70287763889627" style="stroke:black;fill:none;stroke-width:2.0;stroke-dasharray:-;stroke-linecap:round;stroke-linejoin:round;" /><path d="M 106.4814867952694 -150.25841725308806 L 103.50953952315382 -142.96955387038122 L 98.82384163427083 -148.43620140741135 Z" style="stroke:black;fill:black;stroke-linecap:butt;stroke-linejoin:miter;" /><path d="M 108.0,-158.16 L 108.0,-158.16 L 99.0,-158.16 L 117.0,-158.16 M 101.7,-153.84 L 114.3,-153.84 M 106.2,-149.52 L 109.8,-149.52" style="stroke:black;fill:none;stroke-width:2.0;stroke-dasharray:-;stroke-linecap:round;stroke-linejoin:round;" /><path d="M 80.94000000000001,-133.08 L 71.94000000000001,-133.08 L 62.940000000000005,-133.08" style="stroke:black;fill:none;stroke-width:2.0;stroke-dasharray:-;stroke-linecap:round;stroke-linejoin:round;" /><path d="M 62.940000000000005,-133.08 L 62.94,-97.08 L 62.94,-97.08 M 62.93999999999999,-61.080000000000005 L 62.93999999999999,-61.080000000000005 L 62.93999999999999,-25.080000000000005" style="stroke:black;fill:none;stroke-width:2.0;stroke-dasharray:-;stroke-linecap:round;stroke-linejoin:round;" /><path d="M 52.14,-82.68 L 57.53999999999999,-82.68 L 57.53999999999999,-77.28 L 68.33999999999999,-77.28 L 68.33999999999999,-82.68 L 73.74,-82.68" style="stroke:black;fill:none;stroke-width:2.0;stroke-dasharray:-;stroke-linecap:round;stroke-linejoin:round;" /><path d="M 62.93999999999999,-25.080000000000005 L 62.93999999999999,-25.080000000000005 L 53.93999999999999,-25.080000000000005 L 71.94,-25.080000000000005 M 56.639999999999986,-20.760000000000005 L 69.24,-20.760000000000005 M 61.139999999999986,-16.440000000000005 L 64.74,-16.440000000000005" style="stroke:black;fill:none;stroke-width:2.0;stroke-dasharray:-;stroke-linecap:round;stroke-linejoin:round;" /><path d="M 108.0,-108.0 L 144.0,-108.0 L 147.0,-117.0 L 153.0,-99.0 L 158.99999999999997,-117.0 L 165.0,-99.0 L 171.0,-117.0 L 176.99999999999997,-99.0 L 180.0,-108.0 L 216.0,-108.0" style="stroke:black;fill:none;stroke-width:2.0;stroke-dasharray:-;stroke-linecap:round;stroke-linejoin:round;" /><path d="M 216.0,-108.0 L 263.7,-108.0 M 276.3,-117.0 L 276.3,-99.0 M 276.3,-108.0 L 324.0,-108.0" style="stroke:black;fill:none;stroke-width:2.0;stroke-dasharray:-;stroke-linecap:round;stroke-linejoin:round;" /><path d="M 272.7,-121.5 L 278.1277996438308,-130.9986493767039" style="stroke:black;fill:none;stroke-width:2.0;stroke-dasharray:-;stroke-linecap:round;stroke-linejoin:round;" /><path d="M 280.7077221232863 -135.5135137157511 L 280.62833989314925 -129.56976923423622 L 275.62725939451235 -132.42752951917157 Z" style="stroke:black;fill:black;stroke-linecap:butt;stroke-linejoin:miter;" /><path d="M 264.59999999999997,-121.5 L 270.02779964383075,-130.9986493767039" style="stroke:black;fill:none;stroke-width:2.0;stroke-dasharray:-;stroke-linecap:round;stroke-linejoin:round;" /><path d="M 272.6077221232863 -135.5135137157511 L 272.5283398931492 -129.56976923423622 L 267.5272593945123 -132.42752951917157 Z" style="stroke:black;fill:black;stroke-linecap:butt;stroke-linejoin:miter;" /><path d="M 324.0,-108.0 L 324.0,-99.0 L 324.0,-90.0" style="stroke:black;fill:none;stroke-width:2.0;stroke-dasharray:-;stroke-linecap:round;stroke-linejoin:round;" /><path d="M 324.0,-90.0 L 324.0,-90.0 L 315.0,-90.0 L 333.0,-90.0 M 317.7,-85.67999999999999 L 330.3,-85.67999999999999 M 322.2,-81.35999999999999 L 325.8,-81.35999999999999" style="stroke:black;fill:none;stroke-width:2.0;stroke-dasharray:-;stroke-linecap:round;stroke-linejoin:round;" /><path d="M 367.2,-144.0 L 367.2,108.0 L 367.2,360.0" style="stroke:#9b59b6;fill:none;stroke-width:2.5;stroke-dasharray:7.4,3.2;stroke-linecap:round;stroke-linejoin:round;" /><path d="M 324.0,-108.0 L 369.0,-108.0 L 414.0,-108.0" style="stroke:black;fill:none;stroke-width:2.0;stroke-dasharray:-;stroke-linecap:round;stroke-linejoin:round;" /><path d="M 414.0,-108.0 L 427.20000000000005,-108.0" style="stroke:black;fill:none;stroke-width:2.0;stroke-dasharray:-;stroke-linecap:round;stroke-linejoin:round;" /><path d="M 427.20000000000005,-121.2 L 427.20000000000005,-94.8" style="stroke:black;fill:none;stroke-width:2.0;stroke-dasharray:-;stroke-linecap:round;stroke-linejoin:round;" /><path d="M 427.20000000000005,-114.6 L 441.06,-126.47999999999999 L 441.06,-133.08" style="stroke:black;fill:none;stroke-width:2.0;stroke-dasharray:-;stroke-linecap:round;stroke-linejoin:round;" /><path d="M 427.20000000000005,-101.4 L 441.06,-89.52000000000001 L 441.06,-82.92" style="stroke:black;fill:none;stroke-width:2.0;stroke-dasharray:-;stroke-linecap:round;stroke-linejoin:round;" /><path d="M 427.20000000000005,-101.4 L 434.22669057871235,-95.37712236110372" style="stroke:black;fill:none;stroke-width:2.0;stroke-dasharray:-;stroke-linecap:round;stroke-linejoin:round;" /><path d="M 439.5414867952694 -90.82158274691194 L 431.8838416342708 -92.64379859258865 L 436.5695395231538 -98.1104461296188 Z" style="stroke:black;fill:black;stroke-linecap:butt;stroke-linejoin:miter;" /><path d="M 441.06,-82.92 L 441.06,-73.92 L 441.06,-64.92" style="stroke:black;fill:none;stroke-width:2.0;stroke-dasharray:-;stroke-linecap:round;stroke-linejoin:round;" /><path d="M 441.06,-64.92 L 441.06,-64.92 L 432.06,-64.92 L 450.06,-64.92 M 434.76,-60.599999999999994 L 447.36,-60.599999999999994 M 439.26,-56.279999999999994 L 442.86,-56.279999999999994" style="stroke:black;fill:none;stroke-width:2.0;stroke-dasharray:-;stroke-linecap:round;stroke-linejoin:round;" /><path d="M 441.06,-133.08 L 441.06,-151.08 L 441.06,-169.08" style="stroke:black;fill:none;stroke-width:2.0;stroke-dasharray:-;stroke-linecap:round;stroke-linejoin:round;" /><path d="M 441.06,-169.08 L 441.06,-205.08 L 432.06,-208.08 L 450.06,-214.08 L 432.06,-220.07999999999998 L 450.06,-226.08 L 432.06,-232.08 L 450.06,-238.07999999999998 L 441.06,-241.08 L 441.06,-277.08000000000004" style="stroke:black;fill:none;stroke-width:2.0;stroke-dasharray:-;stroke-linecap:round;stroke-linejoin:round;" /><path d="M 475.2,144.0 L 475.2,108.0 L 475.2,108.0 M 475.2,72.0 L 475.2,72.0 L 475.2,36.0" style="stroke:black;fill:none;stroke-width:2.0;stroke-dasharray:-;stroke-linecap:round;stroke-linejoin:round;" /><path d="M 486.0,86.39999999999999 L 480.59999999999997,86.39999999999999 L 480.59999999999997,91.8 L 469.79999999999995,91.8 L 469.79999999999995,86.39999999999999 L 464.4,86.39999999999999" style="stroke:black;fill:none;stroke-width:2.0;stroke-dasharray:-;stroke-linecap:round;stroke-linejoin:round;" /><path d="M 475.2,144.0 L 475.2,144.0 L 466.2,144.0 L 484.2,144.0 M 468.9,148.32 L 481.5,148.32 M 473.4,152.64000000000001 L 477.0,152.64000000000001" style="stroke:black;fill:none;stroke-width:2.0;stroke-dasharray:-;stroke-linecap:round;stroke-linejoin:round;" /><path d="M 475.2,36.0 L 511.2,36.0 L 514.2,27.0 L 520.1999999999999,45.0 L 526.1999999999999,27.0 L 532.2,45.0 L 538.1999999999999,27.0 L 544.1999999999999,45.0 L 547.1999999999999,36.0 L 583.1999999999999,36.0" style="stroke:black;fill:none;stroke-width:2.0;stroke-dasharray:-;stroke-linecap:round;stroke-linejoin:round;" /><path d="M 583.1999999999999,36.0 L 630.9,36.0 M 643.5,27.0 L 643.5,45.0 M 643.5,36.0 L 691.1999999999999,36.0" style="stroke:black;fill:none;stroke-width:2.0;stroke-dasharray:-;stroke-linecap:round;stroke-linejoin:round;" /><path d="M 639.9,22.5 L 645.3277996438308,13.001350623296107" style="stroke:black;fill:none;stroke-width:2.0;stroke-dasharray:-;stroke-linecap:round;stroke-linejoin:round;" /><path d="M 647.9077221232864 8.486486284248919 L 647.8283398931493 14.430230765763788 L 642.8272593945123 11.572470480828427 Z" style="stroke:black;fill:black;stroke-linecap:butt;stroke-linejoin:miter;" /><path d="M 631.8000000000001,22.5 L 637.2277996438308,13.001350623296107" style="stroke:black;fill:none;stroke-width:2.0;stroke-dasharray:-;stroke-linecap:round;stroke-linejoin:round;" /><path d="M 639.8077221232865 8.486486284248919 L 639.7283398931494 14.430230765763788 L 634.7272593945124 11.572470480828427 Z" style="stroke:black;fill:black;stroke-linecap:butt;stroke-linejoin:miter;" /><path d="M 691.1999999999999,36.0 L 691.1999999999999,45.0 L 691.1999999999999,54.0" style="stroke:black;fill:none;stroke-width:2.0;stroke-dasharray:-;stroke-linecap:round;stroke-linejoin:round;" /><path d="M 691.1999999999999,54.0 L 691.1999999999999,54.0 L 682.1999999999999,54.0 L 700.1999999999999,54.0 M 684.9,58.32000000000001 L 697.5,58.32000000000001 M 689.4,62.64 L 693.0,62.64" style="stroke:black;fill:none;stroke-width:2.0;stroke-dasharray:-;stroke-linecap:round;stroke-linejoin:round;" /><path d="M 259.2,-36.0 L 259.2,-0.0 L 268.2,2.9999999999999973 L 250.2,9.0 L 268.2,14.999999999999995 L 250.2,20.999999999999996 L 268.2,27.0 L 250.2,32.99999999999999 L 259.2,36.0 L 259.19999999999993,72.0" style="stroke:black;fill:none;stroke-width:2.0;stroke-dasharray:-;stroke-linecap:round;stroke-linejoin:round;" /><path d="M 234.11999999999995,44.94 L 234.11999999999995,58.14" style="stroke:black;fill:none;stroke-width:2.0;stroke-dasharray:-;stroke-linecap:round;stroke-linejoin:round;" /><path d="M 247.31999999999994,58.14 L 220.91999999999993,58.13999999999999" style="stroke:black;fill:none;stroke-width:2.0;stroke-dasharray:-;stroke-linecap:round;stroke-linejoin:round;" /><path d="M 240.71999999999997,58.14 L 252.59999999999994,72.0 L 259.19999999999993,72.0" style="stroke:black;fill:none;stroke-width:2.0;stroke-dasharray:-;stroke-linecap:round;stroke-linejoin:round;" /><path d="M 227.51999999999995,58.13999999999999 L 215.63999999999993,71.99999999999999 L 209.03999999999994,71.99999999999999" style="stroke:black;fill:none;stroke-width:2.0;stroke-dasharray:-;stroke-linecap:round;stroke-linejoin:round;" /><path d="M 227.51999999999995,58.13999999999999 L 221.49712236110366,65.16669057871232" style="stroke:black;fill:none;stroke-width:2.0;stroke-dasharray:-;stroke-linecap:round;stroke-linejoin:round;" /><path d="M 216.94158274691188 70.48148679526939 L 218.76379859258859 62.82384163427082 L 224.2304461296187 67.5095395231538 Z" style="stroke:black;fill:black;stroke-linecap:butt;stroke-linejoin:miter;" /><path d="M 209.03999999999994,71.99999999999999 L 209.03999999999994,108.0 L 218.03999999999994,110.99999999999999 L 200.03999999999994,117.0 L 218.03999999999994,122.99999999999997 L 200.03999999999994,129.0 L 218.03999999999994,135.0 L 200.03999999999994,140.99999999999997 L 209.03999999999994,144.0 L 209.0399999999999,180.0" style="stroke:black;fill:none;stroke-width:2.0;stroke-dasharray:-;stroke-linecap:round;stroke-linejoin:round;" /><path d="M 209.0399999999999,180.0 L 209.0399999999999,180.0 L 200.0399999999999,180.0 L 218.0399999999999,180.0 M 202.7399999999999,184.32 L 215.3399999999999,184.32 M 207.2399999999999,188.64000000000001 L 210.8399999999999,188.64000000000001" style="stroke:black;fill:none;stroke-width:2.0;stroke-dasharray:-;stroke-linecap:round;stroke-linejoin:round;" /><path d="M 209.03999999999994,71.99999999999999 L 182.03999999999994,71.99999999999999 L 155.03999999999994,71.99999999999999" style="stroke:black;fill:none;stroke-width:2.0;stroke-dasharray:-;stroke-linecap:round;stroke-linejoin:round;" /><path d="M 155.03999999999994,71.99999999999999 L 141.83999999999995,71.99999999999999" style="stroke:black;fill:none;stroke-width:2.0;stroke-dasharray:-;stroke-linecap:round;stroke-linejoin:round;" /><path d="M 141.83999999999995,58.79999999999998 L 141.83999999999995,85.19999999999999" style="stroke:black;fill:none;stroke-width:2.0;stroke-dasharray:-;stroke-linecap:round;stroke-linejoin:round;" /><path d="M 141.83999999999995,65.39999999999998 L 127.97999999999995,53.51999999999998 L 127.97999999999995,46.91999999999998" style="stroke:black;fill:none;stroke-width:2.0;stroke-dasharray:-;stroke-linecap:round;stroke-linejoin:round;" /><path d="M 141.83999999999995,78.59999999999998 L 127.97999999999993,90.47999999999998 L 127.97999999999993,97.07999999999998" style="stroke:black;fill:none;stroke-width:2.0;stroke-dasharray:-;stroke-linecap:round;stroke-linejoin:round;" /><path d="M 141.83999999999995,78.59999999999998 L 134.81330942128758,84.62287763889627" style="stroke:black;fill:none;stroke-width:2.0;stroke-dasharray:-;stroke-linecap:round;stroke-linejoin:round;" /><path d="M 129.49851320473053 89.17841725308804 L 132.4704604768461 81.88955387038119 L 137.15615836572908 87.35620140741133 Z" style="stroke:black;fill:black;stroke-linecap:butt;stroke-linejoin:miter;" /><path d="M 127.97999999999993,97.07999999999998 L 127.97999999999993,106.07999999999998 L 127.97999999999993,115.07999999999998" style="stroke:black;fill:none;stroke-width:2.0;stroke-dasharray:-;stroke-linecap:round;stroke-linejoin:round;" /><path d="M 127.97999999999993,115.07999999999998 L 127.97999999999993,115.07999999999998 L 118.97999999999993,115.07999999999998 L 136.97999999999993,115.07999999999998 M 121.67999999999994,119.39999999999999 L 134.27999999999992,119.39999999999999 M 126.17999999999994,123.72 L 129.77999999999992,123.72" style="stroke:black;fill:none;stroke-width:2.0;stroke-dasharray:-;stroke-linecap:round;stroke-linejoin:round;" /><path d="M 127.97999999999995,46.91999999999998 L 127.97999999999995,-30.54000000000001 L 127.97999999999996,-108.0" style="stroke:black;fill:none;stroke-width:2.0;stroke-dasharray:-;stroke-linecap:round;stroke-linejoin:round;" /><path d="M 127.97999999999996,-108.0 L 137.96999999999994,-108.0 L 147.95999999999992,-108.0" style="stroke:black;fill:none;stroke-width:2.0;stroke-dasharray:-;stroke-linecap:round;stroke-linejoin:round;" /><text x="-21.599999999999994" y="-64.0" dominant-baseline="central" fill="black" font-size="10" font-family="sans" text-anchor="end"><tspan x="-21.599999999999994" dy="10">V_BAT</tspan></text><text x="21.6" y="-64.0" dominant-baseline="central" fill="black" font-size="10" font-family="sans" text-anchor="start"><tspan x="21.6" dy="10">12V</tspan></text><text x="54.00000000000001" y="-130.60000000000002" dominant-baseline="ideographic" fill="black" font-size="10" font-family="sans" text-anchor="middle"><tspan x="54.00000000000001" dy="10">R_PULL</tspan></text><text x="54.00000000000001" y="-105.39999999999999" dominant-baseline="hanging" fill="black" font-size="10" font-family="sans" text-anchor="middle"><tspan x="54.00000000000001" dy="10">680Ω</tspan></text><text x="111.60000000000001" y="-121.60000000000001" dominant-baseline="ideographic" fill="black" font-size="10" font-family="sans" text-anchor="middle"><tspan x="111.60000000000001" dy="10">DIAG PIN</tspan></text><text x="57.6" y="-175.6" dominant-baseline="central" fill="black" font-size="10" font-family="sans" text-anchor="middle"><tspan x="57.6" dy="10">── CAR PORT MODEL ──</tspan></text><text x="62.93999999999998" y="-31.48" dominant-baseline="hanging" fill="black" font-size="10" font-family="sans" text-anchor="middle"><tspan x="62.93999999999998" dy="10">ECU</tspan></text><text x="62.940000000000005" y="-146.68" dominant-baseline="ideographic" fill="black" font-size="10" font-family="sans" text-anchor="middle"><tspan x="62.940000000000005" dy="10">blink</tspan></text><text x="162.0" y="-130.60000000000002" dominant-baseline="ideographic" fill="black" font-size="10" font-family="sans" text-anchor="middle"><tspan x="162.0" dy="10">R_RX</tspan></text><text x="162.0" y="-105.39999999999999" dominant-baseline="hanging" fill="black" font-size="10" font-family="sans" text-anchor="middle"><tspan x="162.0" dy="10">1kΩ</tspan></text><text x="270.0" y="-156.60999999999999" dominant-baseline="ideographic" fill="black" font-size="10" font-family="sans" text-anchor="middle"><tspan x="270.0" dy="10">RX opto</tspan></text><text x="270.0" y="-105.39999999999999" dominant-baseline="hanging" fill="black" font-size="10" font-family="sans" text-anchor="middle"><tspan x="270.0" dy="10">LED</tspan></text><text x="165.6" y="-175.6" dominant-baseline="central" fill="black" font-size="10" font-family="sans" text-anchor="middle"><tspan x="165.6" dy="10">── RX PATH ──</tspan></text><text x="370.79999999999995" y="-159.20000000000002" dominant-baseline="central" fill="#9b59b6" font-size="8" font-family="sans" text-anchor="middle"><tspan x="370.79999999999995" dy="8">ISOLATION</tspan></text><text x="457.2" y="-115.7" dominant-baseline="central" fill="black" font-size="8" font-family="sans" text-anchor="start"><tspan x="457.2" dy="8">RX photo-NPN</tspan></text><text x="444.65999999999997" y="-175.6" dominant-baseline="central" fill="black" font-size="10" font-family="sans" text-anchor="middle"><tspan x="444.65999999999997" dy="10">── MCU SIDE (3.3V) ──</tspan></text><text x="437.46000000000004" y="-182.68" dominant-baseline="ideographic" fill="black" font-size="10" font-family="sans" text-anchor="middle"><tspan x="437.46000000000004" dy="10">MCU_RX</tspan></text><text x="441.06" y="-175.48000000000002" dominant-baseline="hanging" fill="black" font-size="10" font-family="sans" text-anchor="middle"><tspan x="441.06" dy="10">R_PU</tspan></text><text x="441.06" y="-290.68" dominant-baseline="ideographic" fill="black" font-size="10" font-family="sans" text-anchor="middle"><tspan x="441.06" dy="10">13kΩ</tspan></text><text x="437.46000000000004" y="-290.68" dominant-baseline="central" fill="black" font-size="10" font-family="sans" text-anchor="middle"><tspan x="437.46000000000004" dy="10">VCC 3.3V</tspan></text><text x="453.59999999999997" y="80.0" dominant-baseline="central" fill="black" font-size="10" font-family="sans" text-anchor="end"><tspan x="453.59999999999997" dy="10">MCU_TX</tspan></text><text x="496.79999999999995" y="80.0" dominant-baseline="central" fill="black" font-size="10" font-family="sans" text-anchor="start"><tspan x="496.79999999999995" dy="10">0/3.3V</tspan></text><text x="529.1999999999999" y="13.400000000000002" dominant-baseline="ideographic" fill="black" font-size="10" font-family="sans" text-anchor="middle"><tspan x="529.1999999999999" dy="10">R_TX</tspan></text><text x="529.1999999999999" y="38.6" dominant-baseline="hanging" fill="black" font-size="10" font-family="sans" text-anchor="middle"><tspan x="529.1999999999999" dy="10">330Ω</tspan></text><text x="637.1999999999999" y="-12.61" dominant-baseline="ideographic" fill="black" font-size="10" font-family="sans" text-anchor="middle"><tspan x="637.1999999999999" dy="10">TX opto</tspan></text><text x="637.1999999999999" y="38.6" dominant-baseline="hanging" fill="black" font-size="10" font-family="sans" text-anchor="middle"><tspan x="637.1999999999999" dy="10">LED</tspan></text><text x="262.79999999999995" y="-42.4" dominant-baseline="central" fill="black" font-size="10" font-family="sans" text-anchor="middle"><tspan x="262.79999999999995" dy="10">V_DIAG 12V</tspan></text><text x="190.79999999999995" y="-168.4" dominant-baseline="central" fill="black" font-size="10" font-family="sans" text-anchor="middle"><tspan x="190.79999999999995" dy="10">── TX DRIVER ──</tspan></text><text x="259.19999999999993" y="65.60000000000001" dominant-baseline="hanging" fill="black" font-size="10" font-family="sans" text-anchor="middle"><tspan x="259.19999999999993" dy="10">R_OC</tspan></text><text x="259.2" y="-49.6" dominant-baseline="ideographic" fill="black" font-size="10" font-family="sans" text-anchor="middle"><tspan x="259.2" dy="10">1kΩ</tspan></text><text x="233.81999999999994" y="80.14" dominant-baseline="hanging" fill="black" font-size="8" font-family="sans" text-anchor="middle"><tspan x="233.81999999999994" dy="8">TX photo-NPN</tspan></text><text x="233.81999999999994" y="34.34" dominant-baseline="ideographic" fill="black" font-size="7" font-family="sans" text-anchor="middle"><tspan x="233.81999999999994" dy="7">(E-follower)</tspan></text><text x="209.0399999999999" y="173.6" dominant-baseline="hanging" fill="black" font-size="10" font-family="sans" text-anchor="middle"><tspan x="209.0399999999999" dy="10">R_PD</tspan></text><text x="209.03999999999994" y="58.39999999999999" dominant-baseline="ideographic" fill="black" font-size="10" font-family="sans" text-anchor="middle"><tspan x="209.03999999999994" dy="10">10kΩ</tspan></text><text x="158.63999999999993" y="62.29999999999998" dominant-baseline="central" fill="black" font-size="10" font-family="sans" text-anchor="start"><tspan x="158.63999999999993" dy="10">Q_DRV</tspan></text><text x="124.37999999999994" y="62.29999999999998" dominant-baseline="central" fill="black" font-size="10" font-family="sans" text-anchor="end"><tspan x="124.37999999999994" dy="10">2N2222</tspan></text><circle cx="108.0" cy="-108.0" r="2.6999999999999997" style="stroke:black;fill:black;stroke-width:2.0;stroke-dasharray:-;" /><circle cx="441.06" cy="-169.08" r="2.6999999999999997" style="stroke:black;fill:black;stroke-width:2.0;stroke-dasharray:-;" /><circle cx="209.03999999999994" cy="71.99999999999999" r="2.6999999999999997" style="stroke:black;fill:black;stroke-width:2.0;stroke-dasharray:-;" /><circle cx="147.95999999999992" cy="-108.0" r="2.6999999999999997" style="stroke:black;fill:black;stroke-width:2.0;stroke-dasharray:-;" /></svg>